<svg width="106" height="106" viewBox="0 0 106 106" fill="none" xmlns="http://www.w3.org/2000/svg">
<circle cx="53" cy="53" r="52" fill="#FCFCFC" stroke="#2A9D8F" stroke-width="2"/>
<path fill-rule="evenodd" clip-rule="evenodd" d="M39.7544 25.4008C35.6074 26.3252 32.889 27.8433 30.0997 30.7931C27.8213 33.2026 26.882 34.7423 25.8128 37.8216C25.1245 39.8031 25.0039 40.6305 25 43.3933C24.992 48.811 26.6046 52.7062 30.435 56.5217C34.0761 60.1494 38.1256 61.8495 43.1546 61.8628C47.2877 61.8734 50.1521 61.0826 53.3347 59.0516L54.9017 58.0517L58.0775 61.2298L61.2533 64.4076L60.7456 65.1804C60.4482 65.6332 60.308 66.2287 60.4071 66.6189C60.5002 66.9849 63.6813 70.3707 67.4762 74.1423C72.6226 79.2571 74.5559 81 75.0831 81C76.0727 81 81 76.0846 81 75.0974C81 74.5715 79.2529 72.6428 74.1257 67.5088C70.3447 63.723 66.9511 60.5496 66.5841 60.4567C66.193 60.3579 65.596 60.4977 65.1422 60.7944L64.3675 61.3009L61.182 58.1328L57.9962 54.9647L58.9985 53.4014C61.0345 50.2265 61.8272 47.369 61.8165 43.2458C61.8035 38.2472 60.107 34.2211 56.4596 30.5321C52.0282 26.05 45.6426 24.0885 39.7544 25.4008ZM41.4959 27.9654C36.3814 28.4854 31.6552 31.7966 29.3452 36.4781C28.1291 38.9427 27.7959 40.462 27.787 43.5836C27.7613 52.6537 35.2136 59.6326 44.3373 59.0825C52.448 58.5932 58.539 52.5168 59.0296 44.4256C59.6286 34.5397 51.5382 26.9446 41.4959 27.9654ZM45.5199 41.7711C43.6954 44.2044 42.0784 46.1954 41.9264 46.1954C41.7744 46.1954 40.7712 45.5317 39.6974 44.7206C37.5209 43.0771 36.5148 42.8665 36.0195 43.9511C35.563 44.9504 35.8454 45.302 38.9963 47.656C41.6839 49.664 42.3519 49.9711 43.0283 49.5092C43.4231 49.2396 50.3343 40.0727 50.7526 39.2639C51.2813 38.2419 50.6897 37.36 49.47 37.3512C48.9967 37.3479 48.0009 38.462 45.5199 41.7711Z" fill="#2A9D8F"/>
</svg>
