<svg width="106" height="106" viewBox="0 0 106 106" fill="none" xmlns="http://www.w3.org/2000/svg">
<circle cx="53" cy="53" r="52" fill="#FCFCFC" stroke="#2A9D8F" stroke-width="2"/>
<g clip-path="url(#clip0_555_525)">
<path fill-rule="evenodd" clip-rule="evenodd" d="M52.2085 25.2254C51.9586 25.3574 51.714 25.609 51.5796 25.8725C51.3704 26.2826 51.3596 26.5117 51.3596 30.5736V34.8436L44.0042 34.8443C39.5143 34.8446 36.4977 34.8868 36.2611 34.9526C35.7243 35.1016 35.4433 35.4332 33.5309 38.1745C31.6271 40.9035 31.4695 41.2103 31.6544 41.8277C31.7745 42.2286 34.8887 46.8075 35.4868 47.4625C36.0642 48.0951 35.8309 48.078 43.9186 48.078H51.3596V59.6171V71.1561H45.3932C38.9369 71.1561 39.1402 71.1383 38.5628 71.7559L38.2893 72.0485L38.2582 75.9554L38.2269 79.8623L38.4791 80.2397C39.0255 81.0576 37.9161 80.9995 53.0003 80.9995C68.0844 80.9995 66.975 81.0576 67.5214 80.2397L67.7737 79.8623L67.7424 75.9554L67.7112 72.0485L67.4378 71.7559C66.8604 71.1383 67.0636 71.1561 60.6073 71.1561H54.6409V54.6405V38.1249H62.2263H69.8116L70.1745 37.8788C70.5831 37.6016 74.1489 32.5915 74.3343 32.034C74.5546 31.3715 74.3745 31.0158 72.375 28.163C70.9355 26.1094 70.3467 25.3556 70.0634 25.2038C69.7017 25.0097 69.2713 25.0001 61.1505 25.0047C52.8709 25.0094 52.6053 25.016 52.2085 25.2254ZM54.6409 31.5624V34.8436H61.5647H68.4884L69.6121 33.2392C70.4514 32.0411 70.713 31.5885 70.6454 31.452C70.5956 31.3515 70.0874 30.5983 69.5159 29.7784L68.4768 28.2875L61.5589 28.2843L54.6409 28.2811V31.5624ZM37.4491 38.3163C37.1232 38.6988 35.2816 41.3887 35.2845 41.4782C35.2861 41.5288 35.7912 42.2839 36.4069 43.1561L37.5263 44.7421L44.443 44.7702L51.3596 44.7984V41.4616V38.1249H44.486C38.0746 38.1249 37.6014 38.1378 37.4491 38.3163ZM61.3961 41.7279C59.6405 42.2891 58.321 43.8349 58.0136 45.6906C57.8633 46.598 58.0147 47.1789 58.5164 47.6194C59.0402 48.0793 59.6447 48.1637 60.2648 47.8635C60.8586 47.5761 61.0795 47.2537 61.2031 46.4938C61.404 45.2597 61.9789 44.7342 63.0323 44.8216C63.5798 44.867 63.6894 44.9201 64.0648 45.3225C64.4728 45.76 64.5429 45.9822 64.4856 46.6561C64.4445 47.1388 64.1988 47.4542 63.3816 48.0736C61.893 49.2018 61.2733 50.4728 61.2637 52.4172C61.2588 53.3755 61.2894 53.5718 61.4836 53.8323C62.2492 54.8594 63.569 54.8852 64.2364 53.886C64.4317 53.5937 64.4848 53.3603 64.4853 52.7923C64.4862 51.7549 64.6344 51.3323 65.1476 50.9051C66.5062 49.7738 66.9081 49.3315 67.302 48.5344C67.6659 47.7981 67.7088 47.6169 67.7476 46.6512C67.8005 45.3357 67.5488 44.4639 66.8371 43.4972C65.6093 41.8294 63.3633 41.099 61.3961 41.7279ZM62.2316 58.1301C61.6326 58.4022 61.2763 58.9163 61.2763 59.5089C61.2763 60.7768 62.6538 61.6182 63.6927 60.9848C64.7819 60.3207 64.7353 58.7666 63.6082 58.1706C63.0411 57.8707 62.8174 57.8641 62.2316 58.1301ZM41.4065 76.078V77.7186H53.0003H64.594V76.078V74.4374H53.0003H41.4065V76.078Z" fill="#2A9D8F"/>
</g>
<defs>
<clipPath id="clip0_555_525">
<rect width="56" height="56" fill="white" transform="translate(25 25)"/>
</clipPath>
</defs>
</svg>
