<svg width="106" height="106" viewBox="0 0 106 106" fill="none" xmlns="http://www.w3.org/2000/svg">
<circle cx="53" cy="53" r="52" fill="#FCFCFC" stroke="#2A9D8F" stroke-width="2"/>
<path fill-rule="evenodd" clip-rule="evenodd" d="M40.7175 25.1917C39.026 25.6328 37.7598 26.8357 37.2071 28.5267C37.04 29.0381 36.9808 29.1039 36.5852 29.2182C35.0393 29.6646 33.6902 30.9641 33.2181 32.4614L33.0244 33.0757L32.3196 33.3097C30.9908 33.7507 30.0172 34.6688 29.332 36.1271L29.0381 36.7526L29.0095 56.7661C28.9846 74.2452 29.0017 76.8506 29.1446 77.3411C29.6744 79.1587 31.276 80.5942 33.1081 80.8935C33.5005 80.9576 39.7678 80.9993 49.0853 80.9996C66.1087 81.0004 65.2936 81.0341 66.5609 80.2757C66.9133 80.0648 67.351 79.7487 67.5335 79.5734C67.9768 79.1476 68.5653 78.163 68.7929 77.4669C68.96 76.9555 69.0192 76.8897 69.4148 76.7753C70.9607 76.3289 72.3098 75.0295 72.7819 73.5322L72.9756 72.9179L73.6804 72.6839C75.0092 72.2428 75.9828 71.3247 76.668 69.8665L76.9619 69.241L76.9905 49.2275C77.0154 31.7484 76.9983 29.143 76.8554 28.6525C76.3256 26.8349 74.724 25.3994 72.8919 25.1001C72.4981 25.0358 66.2372 24.9968 56.8383 25.0002C42.7043 25.0055 41.3714 25.0213 40.7175 25.1917ZM41.3206 27.0637C40.4975 27.2659 39.7438 27.8336 39.3914 28.5167C39.2764 28.74 39.1822 28.9491 39.1822 28.9816C39.1822 29.0141 45.86 29.0407 54.0219 29.0407C67.0807 29.0407 68.9301 29.0609 69.4318 29.2096C70.9588 29.6619 72.2112 30.8537 72.7787 32.3947L73.0139 33.0334L73.0688 51.9341L73.1236 70.8347L73.6301 70.5143C73.9087 70.338 74.2655 70.0253 74.423 69.8193C75.083 68.9562 75.0427 70.3089 75.0427 48.9945C75.0427 29.7752 75.0394 29.4778 74.8241 28.9036C74.5626 28.2066 73.9859 27.6137 73.2332 27.2685L72.6849 27.017L57.1673 26.9999C48.6326 26.9905 41.5016 27.0192 41.3206 27.0637ZM36.944 31.1818C36.3328 31.4051 35.8092 31.8352 35.4382 32.4187L35.117 32.924L50.0626 32.9787L65.0084 33.0334L65.6231 33.2682C67.278 33.9003 68.3416 35.0339 68.8344 36.6904C68.9939 37.2267 69.0111 39.1097 69.0111 56.0322V74.7799L69.2579 74.7069C70.0053 74.4861 70.8025 73.4498 70.9857 72.4609C71.0608 72.055 71.0886 65.4421 71.0691 52.6069L71.0399 33.3615L70.778 32.7831C70.6271 32.4501 70.3104 32.0244 70.0316 31.7795C69.0906 30.9533 70.3341 31.0088 52.9531 31.0173C39.7174 31.0239 37.3082 31.0486 36.944 31.1818ZM33.4076 35.0603C32.7245 35.1971 32.123 35.5434 31.6879 36.0505C30.9013 36.9671 30.9573 35.3626 30.9573 57.0049C30.9573 76.3571 30.959 76.5117 31.1807 77.1026C31.4514 77.8246 32.113 78.472 32.8829 78.7681C33.4068 78.9697 33.9449 78.9766 49.052 78.9766H64.6794L65.2406 78.7232C65.8959 78.4273 66.3675 77.9694 66.726 77.281L66.9823 76.7888V56.9895V37.1901L66.7408 36.7399C66.3515 36.0141 65.9715 35.6353 65.3049 35.3088L64.6794 35.0024L49.2714 34.9857C40.797 34.9766 33.6583 35.0101 33.4076 35.0603ZM35.3725 37.1933C35.2408 37.2854 35.0821 37.5438 35.0197 37.7676C34.8667 38.3175 34.8667 47.658 35.0197 48.2079C35.2342 48.9782 35.0047 48.9498 40.9887 48.9459C45.0421 48.9433 46.408 48.9097 46.5393 48.8092C46.9313 48.5089 46.9684 48.2336 46.9684 45.6203V43.0424H45.9814H44.9944V45.0114V46.9804H40.9916H36.9889V42.9877V38.995H40.0047H43.0205V38.0106V37.0261H39.3163C36.1693 37.0261 35.5759 37.0512 35.3725 37.1933ZM48.9424 38.995V39.9795H55.961H62.9795V38.995V38.0106H55.961H48.9424V38.995ZM43.1301 40.4718L40.9956 42.603L40.3326 41.9474L39.6695 41.292L38.9624 42.0037L38.2554 42.7152L39.2921 43.7537C40.3727 44.8362 40.8176 45.0961 41.2774 44.914C41.4219 44.8567 42.6878 43.6607 44.0909 42.256L46.6417 39.702L45.9531 39.0213L45.2647 38.3406L43.1301 40.4718ZM48.9889 42.0949C48.9578 42.1755 48.9471 42.6308 48.9649 43.1067L48.9972 43.9722L55.9884 44.0003L62.9795 44.0286V42.9885V41.9485H56.0124C50.2943 41.9485 49.0351 41.9748 48.9889 42.0949ZM48.9424 46.9804V47.9649H55.961H62.9795V46.9804V45.9959H55.961H48.9424V46.9804ZM35.3725 51.195C35.2408 51.2871 35.0821 51.5455 35.0197 51.7693C34.8667 52.3192 34.8667 61.6597 35.0197 62.2096C35.2342 62.9799 35.0047 62.9516 40.9887 62.9476C45.0421 62.945 46.408 62.9114 46.5393 62.8109C46.9313 62.5106 46.9684 62.2353 46.9684 59.622V57.0442H45.9814H44.9944V59.0132V60.9821H40.9916H36.9889V56.9895V52.9968H40.0047H43.0205V52.0123V51.0278H39.3163C36.1693 51.0278 35.5759 51.0529 35.3725 51.195ZM48.9424 52.9968V53.9813H55.961H62.9795V52.9968V52.0123H55.961H48.9424V52.9968ZM43.1301 54.4735L40.9956 56.6047L40.3326 55.9492L39.6695 55.2937L38.9624 56.0054L38.2554 56.717L39.2921 57.7554C40.3727 58.8379 40.8176 59.0978 41.2774 58.9157C41.4219 58.8585 42.6878 57.6624 44.0909 56.2578L46.6417 53.7038L45.9531 53.023L45.2647 52.3423L43.1301 54.4735ZM48.9889 56.0966C48.9578 56.1773 48.9471 56.6325 48.9649 57.1085L48.9972 57.974L55.9884 58.0021L62.9795 58.0303V56.9902V55.9503H56.0124C50.2943 55.9503 49.0351 55.9765 48.9889 56.0966ZM48.9424 60.9821V61.9666H55.961H62.9795V60.9821V59.9977H55.961H48.9424V60.9821ZM35.3725 65.1968C35.2408 65.2889 35.0821 65.5473 35.0197 65.7711C34.8667 66.321 34.8667 75.6614 35.0197 76.2113C35.2342 76.9816 35.0047 76.9533 40.9887 76.9494C45.0421 76.9468 46.408 76.9132 46.5393 76.8126C46.9313 76.5124 46.9684 76.237 46.9684 73.6237V71.0459H45.9814H44.9944V73.0149V74.9839H40.9916H36.9889V70.9912V66.9985H40.0047H43.0205V66.014V65.0295H39.3163C36.1693 65.0295 35.5759 65.0547 35.3725 65.1968ZM48.9424 66.9985V67.983H55.961H62.9795V66.9985V66.014H55.961H48.9424V66.9985ZM43.1301 68.4753L40.9956 70.6065L40.3326 69.9509L39.6695 69.2955L38.9624 70.0071L38.2554 70.7187L39.2921 71.7571C40.3727 72.8396 40.8176 73.0996 41.2774 72.9174C41.4219 72.8602 42.6878 71.6642 44.0909 70.2595L46.6417 67.7055L45.9531 67.0248L45.2647 66.344L43.1301 68.4753ZM48.9889 70.0984C48.9578 70.179 48.9471 70.6343 48.9649 71.1102L48.9972 71.9757L55.9884 72.0038L62.9795 72.032V70.992V69.952H56.0124C50.2943 69.952 49.0351 69.9783 48.9889 70.0984ZM48.9424 74.9839V75.9684H55.961H62.9795V74.9839V73.9994H55.961H48.9424V74.9839Z" fill="#2A9D8F"/>
</svg>
