<svg width="106" height="106" viewBox="0 0 106 106" fill="none" xmlns="http://www.w3.org/2000/svg">
<circle cx="53" cy="53" r="52" fill="#FCFCFC" stroke="#2A9D8F" stroke-width="2"/>
<path fill-rule="evenodd" clip-rule="evenodd" d="M47.1849 25.1622C45.3724 25.529 44.1424 26.2135 42.6959 27.6601C41.801 28.5552 41.4967 28.9661 41.0713 29.854C40.4084 31.2373 40.1577 32.3119 40.1564 33.7742C40.1534 37.3288 42.3193 41.5554 46.9702 47.0707C48.5504 48.9447 53.8729 54.248 54.2753 54.3496C54.4538 54.3946 54.7307 54.3984 54.8906 54.3581C55.0507 54.3177 55.94 53.5568 56.8669 52.6672L58.5523 51.0498L59.4845 52.0334C59.9972 52.5746 60.4353 53.0672 60.458 53.1283C60.5474 53.3681 64.3613 56.8694 64.6559 56.982C64.8811 57.0682 65.0762 57.0463 65.3492 56.9044C65.8577 56.64 70.2601 52.2239 71.6221 50.6119C74.48 47.2294 76.2739 44.3691 77.1839 41.7432C77.5047 40.8178 77.5407 40.5414 77.5439 38.9798C77.547 37.4943 77.5049 37.1208 77.2519 36.3847C76.6357 34.5914 75.1961 32.9174 73.5357 32.0632C72.1943 31.3731 71.4952 31.2036 69.9915 31.2036H68.6998L68.4951 30.6252C68.1731 29.7152 67.3862 28.5028 66.5814 27.6764C64.2841 25.3176 61.079 24.4459 58.0986 25.3694C56.9614 25.7217 56.4671 25.9807 55.441 26.7614L54.5998 27.4016L53.7369 26.743C51.7726 25.2437 49.4957 24.6944 47.1849 25.1622ZM47.2197 26.9539C46.0464 27.2398 44.8983 27.9023 43.9964 28.8138C41.8111 31.0224 41.3298 33.9192 42.6061 37.1803C43.6496 39.8461 45.7202 42.9329 48.8976 46.5591C50.2326 48.0828 54.4436 52.3471 54.6131 52.3471C54.7798 52.3471 59.0826 47.9686 60.4272 46.4307C64.5615 41.7022 66.8302 37.8114 67.2586 34.7144C67.6567 31.8373 66.0003 28.7396 63.4002 27.4989C60.677 26.1995 58.159 26.6248 55.8778 28.7696C55.273 29.3383 54.7512 29.7255 54.5893 29.7255C54.425 29.7255 53.9575 29.3707 53.4073 28.8283C52.9068 28.3349 52.1739 27.7579 51.7787 27.5462C50.4357 26.8266 48.6793 26.5983 47.2197 26.9539ZM69.0155 34.3205C68.9661 35.3999 68.8644 35.9728 68.551 36.9389C67.5092 40.1491 64.9981 43.9901 61.059 48.3988L59.8207 49.7846L60.9738 51.0419C62.3225 52.5126 64.7828 54.9177 64.9387 54.9177C65.1617 54.9177 70.0548 49.7766 71.2394 48.2974C73.5358 45.4301 75.1343 42.7031 75.6465 40.7792C76.7203 36.7447 73.9784 32.9388 69.998 32.9388H69.0788L69.0155 34.3205ZM22.6392 51.9176C22.5337 51.9602 22.3467 52.0832 22.2237 52.1909C22.0134 52.3752 22 53.1762 22 65.5964V78.806L22.3485 79.0815C22.6878 79.3499 22.7844 79.3561 26.024 79.3158L29.3509 79.2744L30.118 78.9144C31.5691 78.2335 32.6188 76.8133 32.8105 75.2722C32.8575 74.8932 32.9181 74.583 32.9452 74.583C32.9723 74.583 36.2016 75.8333 40.1216 77.3614C44.0415 78.8895 47.7666 80.2717 48.3994 80.433C52.698 81.5293 56.8599 81.0375 61.0126 78.9428C62.2301 78.3287 80.0226 68.8706 82.4404 67.5524C83.8216 66.7992 84.1707 66.1467 83.6915 65.2147C83.4405 64.7271 82.0758 63.6239 81.0574 63.0855C79.2585 62.1346 76.6062 61.7734 74.7989 62.2333C74.4122 62.3317 71.913 63.213 69.245 64.1918C66.5772 65.1705 64.3542 65.9714 64.3051 65.9714C64.2561 65.9714 64.194 65.5521 64.1673 65.0396C64.0842 63.4507 63.2243 62.1736 61.7788 61.4922L61.0558 61.1515L56.7178 61.1115L52.3797 61.0714L51.6041 60.3489C49.4764 58.3671 46.6056 57.0529 43.6905 56.726C43.0164 56.6504 40.3119 56.5886 37.6805 56.5886H32.896L32.8086 55.8844C32.6142 54.3204 31.4202 52.7811 29.952 52.2018C29.2774 51.9355 28.9848 51.9113 26.027 51.8771C24.2692 51.8568 22.7447 51.875 22.6392 51.9176ZM23.7898 65.5766V77.5393H26.2359C27.801 77.5393 28.8717 77.4823 29.2083 77.3812C29.884 77.1782 30.7594 76.3058 30.9386 75.6564C31.0301 75.3253 31.0757 71.9637 31.076 65.5041L31.0768 55.8467L30.7196 55.1593C30.4597 54.6591 30.1926 54.3662 29.7393 54.0842L29.1162 53.6966L26.453 53.6553L23.7898 53.6137V65.5766ZM32.8666 65.5037V72.6364L33.9213 73.0446C34.5013 73.2691 37.7667 74.5391 41.1774 75.8668C44.5882 77.1945 47.7777 78.4048 48.2653 78.5562C51.6425 79.6049 55.6555 79.377 58.955 77.949C59.7722 77.5953 81.5257 66.1182 81.8188 65.8861C81.9267 65.8006 81.4413 65.379 80.7512 64.959C79.1497 63.9839 77.1788 63.5865 75.5424 63.9085C74.5924 64.0955 62.9466 68.3399 62.6546 68.6055C62.5449 68.7054 62.1115 68.9489 61.6916 69.1465L60.928 69.506H52.6389H44.3499L44.1055 69.2026C43.79 68.8111 43.7944 68.352 44.1167 68.0279C44.3669 67.7764 44.5433 67.7709 52.3306 67.7701C57.539 67.7697 60.4573 67.7224 60.7765 67.6332C61.0447 67.5584 61.4831 67.277 61.7505 67.0082C62.9508 65.8014 62.6008 63.8314 61.0611 63.1283C60.5919 62.914 60.135 62.8921 56.0872 62.8895L51.63 62.8867L50.6539 61.9377C48.9897 60.3196 47.3568 59.3907 45.034 58.7406C44.1149 58.4834 43.6985 58.4631 38.4597 58.4185L32.8666 58.3711V65.5037Z" fill="#2A9D8F"/>
</svg>
