<svg width="106" height="106" viewBox="0 0 106 106" fill="none" xmlns="http://www.w3.org/2000/svg">
<circle cx="53" cy="53" r="52" fill="#FCFCFC" stroke="#2A9D8F" stroke-width="2"/>
<g clip-path="url(#clip0_555_563)">
<path fill-rule="evenodd" clip-rule="evenodd" d="M55.4399 25.201C54.3835 25.5706 53.5996 26.2834 53.1355 27.2967C53.0192 27.5505 52.9393 28.1402 52.8985 29.0467L52.8368 30.4138L51.579 30.4811C49.6592 30.5837 48.405 31.189 47.4645 32.4666C47.0067 33.0885 46.9004 33.3403 44.5377 39.3947L43.8074 41.2663L42.9027 41.3227C41.0803 41.4363 39.9709 42.5148 39.972 44.1717C39.9732 45.8679 41.1525 46.9808 42.9513 46.9831L43.7845 46.9842L44.1732 47.9959C44.387 48.5524 44.5956 49.0937 44.6369 49.199C44.7078 49.3802 44.2822 49.3904 36.6225 49.3904H28.5332L28.1642 49.6391C27.9612 49.7758 27.6832 50.0539 27.5465 50.2569L27.2977 50.6259V56.5516V62.4772L27.5508 62.7151C28.0008 63.1378 28.6119 62.9819 28.8175 62.392C28.8962 62.1665 28.9384 60.8083 28.9384 58.5069V54.9685H39.7118H50.4852V64.0341C50.4852 72.2184 50.5031 73.1549 50.6687 73.6675L50.852 74.2354L50.5138 74.9214L50.1755 75.6074L49.4984 75.6781C47.6446 75.8718 46.4415 77.5963 47.0514 79.1856C47.1119 79.3433 46.2474 79.3592 37.5872 79.3592C27.1602 79.3592 27.617 79.3873 27.0465 78.7094C26.808 78.4259 26.7509 78.2479 26.7509 77.7877C26.7509 77.2887 26.8205 77.1086 27.3081 76.3469C28.0675 75.1607 28.6839 73.8786 28.8277 73.1856C28.904 72.8181 28.9359 71.3523 28.9155 69.1388L28.8837 65.6681L28.5768 65.4042C28.2018 65.0819 27.9611 65.0721 27.59 65.3639L27.3058 65.5874L27.2745 69.3313L27.2431 73.0754L26.8928 73.7837C26.7002 74.1733 26.2777 74.9103 25.954 75.4217C25.2273 76.5693 25.1099 76.9027 25.1113 77.8169C25.1131 79.0454 25.8094 80.1309 26.9587 80.6971L27.4618 80.9451H53.0556H78.6493L79.1651 80.6419C80.5149 79.8484 80.9047 78.2878 80.0892 76.9426C79.6537 76.2243 78.9364 75.7967 77.9595 75.673L77.2698 75.5857L75.8421 72.906C75.0569 71.4322 74.2607 70.0646 74.0728 69.8668C73.885 69.6691 73.472 69.3846 73.1552 69.2346C72.832 69.0819 72.579 68.8891 72.579 68.7958C72.579 68.548 72.2715 67.9885 71.8476 67.4653C71.4133 66.929 70.6731 66.4629 69.9743 66.2853L69.487 66.1616L69.2512 65.3503C68.9565 64.3364 68.5376 63.6192 67.8237 62.9062C66.5092 61.5933 64.5702 61.0506 62.7377 61.4825C60.8976 61.9161 59.237 63.5148 58.7925 65.2802C58.6745 65.7488 58.6353 65.7869 58.0492 66.005C56.8921 66.4357 55.8759 67.4084 55.455 68.4883C55.2944 68.9005 55.2285 68.9519 54.6599 69.1103C53.8065 69.3478 53.223 69.8807 52.6234 70.9703L52.1299 71.867L52.1278 64.8943L52.1259 57.9217L60.9032 57.9198C70.5556 57.9177 70.5752 57.9165 71.8126 57.257C72.621 56.8262 73.4419 55.9719 73.8635 55.1229C74.04 54.7673 74.8397 52.7907 75.6405 50.7303L77.0966 46.9842L77.9277 46.9831C79.7249 46.9808 80.8831 45.8784 80.8891 44.1643C80.8919 43.3398 80.722 42.8947 80.1713 42.2852C79.5688 41.6183 79.0438 41.3894 77.9622 41.3219C77.0978 41.268 77.0399 41.2485 76.9402 40.9799C76.2555 39.1333 75.5688 37.5052 75.4059 37.3423C74.9521 36.8885 74.1102 37.2478 74.1102 37.8952C74.1102 38.0698 74.3759 38.8942 74.7008 39.7272L75.2913 41.242L66.2903 41.2967C57.6341 41.3493 57.2806 41.3593 57.0592 41.5597C56.7452 41.844 56.7554 42.3925 57.0805 42.6979L57.3319 42.9341L67.9722 42.963L78.6126 42.992L78.9317 43.3492C79.3851 43.8566 79.3849 44.5701 78.9312 45.0238L78.6115 45.3435H60.4529H42.2944L42.0128 45.0974C41.4655 44.6189 41.4665 43.7748 42.015 43.2594L42.2995 42.992L48.2245 42.9373C51.4831 42.9072 54.2138 42.8409 54.2928 42.79C54.7027 42.5252 54.6568 41.6571 54.2213 41.4413C54.1215 41.3918 52.1364 41.3267 49.8097 41.2967L45.5797 41.242L46.9996 37.5872C47.7805 35.5771 48.5644 33.7305 48.7417 33.4837C49.1158 32.9628 49.9187 32.4044 50.5423 32.2312C50.8443 32.1473 53.8763 32.1101 60.4531 32.1098C69.0354 32.1093 69.9827 32.1265 70.4987 32.2932C71.272 32.5429 72.0914 33.2961 72.4771 34.1117C72.6436 34.4638 72.8653 34.8464 72.9698 34.9618C73.2398 35.2601 73.7354 35.2283 74.0727 34.891C74.2994 34.6643 74.3404 34.5432 74.2858 34.2621C74.1599 33.6146 73.5627 32.5701 72.9826 31.9826C71.8802 30.8662 70.7662 30.4685 68.7417 30.4685H67.4659L67.4129 29.2381C67.3738 28.3328 67.2965 27.8432 67.1203 27.3855C66.8031 26.5613 66.036 25.7545 65.1962 25.3615L64.5399 25.0545L60.2743 25.0282C56.39 25.0044 55.9578 25.0198 55.4399 25.201ZM55.9398 26.7443C55.4814 26.886 55.0189 27.2805 54.7498 27.7594C54.5391 28.1343 54.4988 28.3739 54.489 29.3084L54.4774 30.4138L60.1501 30.4422L65.8227 30.4705L65.777 29.3484C65.7223 28.0081 65.4928 27.46 64.792 26.996L64.3375 26.6951L60.2825 26.6752C58.0522 26.6643 56.0979 26.6954 55.9398 26.7443ZM55.087 35.5692C54.902 35.8043 54.8602 36.0132 54.8602 36.7029C54.8602 37.7413 55.0836 38.1248 55.6885 38.1248C56.3417 38.1248 56.5009 37.8463 56.5009 36.7029C56.5009 35.8643 56.4685 35.6862 56.2821 35.4998C55.9564 35.1741 55.371 35.2081 55.087 35.5692ZM59.8763 35.4902C59.6388 35.6823 59.6181 35.78 59.6181 36.7029C59.6181 37.6258 59.6388 37.7235 59.8763 37.9157C60.211 38.1868 60.7089 38.1824 60.9852 37.906C61.1716 37.7197 61.204 37.5415 61.204 36.7029C61.204 35.8643 61.1716 35.6862 60.9852 35.4998C60.7089 35.2234 60.211 35.219 59.8763 35.4902ZM64.5946 35.4998C64.4082 35.6862 64.3759 35.8643 64.3759 36.7029C64.3759 37.8463 64.535 38.1248 65.1882 38.1248C65.7932 38.1248 66.0165 37.7413 66.0165 36.7029C66.0165 36.0132 65.9747 35.8043 65.7898 35.5692C65.5057 35.2081 64.9203 35.1741 64.5946 35.4998ZM45.6103 47.1756C45.649 47.2809 45.8594 47.8222 46.078 48.3787L46.4753 49.3904H48.6497C51.0795 49.3904 51.236 49.4271 51.7647 50.1198L52.0712 50.5213L52.1037 53.4043L52.1362 56.2871L61.1818 56.2568C70.1159 56.2267 70.2336 56.2235 70.7252 55.996C71.3252 55.7184 71.9435 55.1923 72.2469 54.7014C72.4204 54.4209 75.3134 47.1737 75.3134 47.0199C75.3134 47.0002 68.6144 46.9842 60.4267 46.9842C46.295 46.9842 45.5436 46.9939 45.6103 47.1756ZM55.3329 50.2837C54.9657 50.4649 54.8313 50.9308 54.8782 51.8604C54.9143 52.5751 54.9572 52.7251 55.1759 52.9023C55.5244 53.1845 55.9111 53.162 56.2324 52.8406C56.4751 52.5981 56.5009 52.4833 56.5009 51.6497C56.5009 50.9302 56.4588 50.6773 56.3095 50.5009C56.0733 50.2219 55.6493 50.1275 55.3329 50.2837ZM59.9467 50.4021C59.4444 50.8359 59.4253 52.4327 59.9172 52.8908C60.2177 53.1708 60.5529 53.168 60.9158 52.8824C61.1904 52.6664 61.204 52.6077 61.204 51.6326C61.204 50.6575 61.1904 50.5988 60.9158 50.3828C60.5456 50.0915 60.3009 50.0964 59.9467 50.4021ZM64.6444 50.4246C64.3992 50.6697 64.3759 50.7783 64.3759 51.6744C64.3759 52.6043 64.391 52.6676 64.6641 52.8824C65.0225 53.1644 65.369 53.1711 65.7008 52.9023C65.9196 52.7251 65.9625 52.5751 65.9986 51.8604C66.0468 50.9056 65.9099 50.461 65.5117 50.2796C65.1124 50.0976 64.9429 50.126 64.6444 50.4246ZM28.9384 52.1795V53.3279H39.7118H50.4852V52.1795V51.031H39.7118H28.9384V52.1795ZM39.0135 58.081C38.4536 58.2613 37.8752 58.78 37.5448 59.3982C37.2213 60.0032 37.2252 61.1839 37.5525 61.8149C38.4797 63.6019 40.8374 63.6341 41.7579 61.8722C42.1116 61.1949 42.1746 60.1833 41.9034 59.5342C41.4079 58.3484 40.1491 57.7154 39.0135 58.081ZM39.2531 59.8262C38.6461 60.3484 38.9352 61.531 39.6698 61.531C40.3929 61.531 40.7171 60.3935 40.1542 59.8308C39.8178 59.4943 39.6401 59.4934 39.2531 59.8262ZM33.8056 60.5373C32.6322 60.8313 31.889 61.8435 31.8939 63.1408C31.8967 63.892 32.148 64.5051 32.6647 65.0217C33.1395 65.4966 33.6077 65.6873 34.2986 65.6873C35.533 65.6873 36.5317 64.6993 36.6722 63.3391C36.8468 61.6462 35.3232 60.1568 33.8056 60.5373ZM44.6337 60.5396C43.4495 60.8279 42.7267 61.808 42.722 63.1318C42.719 64.0013 43.1292 64.831 43.793 65.2976C44.4133 65.7336 45.4245 65.8192 46.0645 65.4901C46.565 65.2328 46.9884 64.8029 47.2706 64.2654C47.5463 63.7404 47.5466 62.4943 47.271 61.9685C46.9261 61.3101 46.3242 60.7725 45.7368 60.5981C45.1483 60.4233 45.118 60.4216 44.6337 60.5396ZM34.0041 62.1881C33.2262 62.5015 33.4702 64.0467 34.2977 64.0467C35.0319 64.0467 35.3216 62.9756 34.7437 62.3976C34.3987 62.0526 34.3644 62.0429 34.0041 62.1881ZM44.8322 62.1881C44.0411 62.5068 44.2738 64.0467 45.1132 64.0467C45.5143 64.0467 45.7864 63.7328 45.8598 63.1854C45.9115 62.8 45.8771 62.7029 45.5855 62.4113C45.2264 62.0522 45.1936 62.0425 44.8322 62.1881ZM63.0087 63.0991C61.4721 63.6114 60.4594 64.7611 60.2669 66.2122C60.1633 66.9929 59.9146 67.2832 59.2661 67.3804C58.417 67.5078 57.5871 68.0169 57.2329 68.6277L57.0354 68.9685H64.0009H70.9664L70.6968 68.6189C70.3143 68.1229 69.6926 67.8348 68.8956 67.784C68.0124 67.7277 67.8965 67.5933 67.7691 66.4758C67.6021 65.0119 66.8726 63.9371 65.6349 63.3316C64.9269 62.9851 63.6814 62.8749 63.0087 63.0991ZM38.3849 64.7876C36.4916 65.466 35.0724 67.0794 34.7407 68.9305C34.522 70.1513 34.9668 71.2916 35.904 71.9125C36.7391 72.4656 37.6664 72.704 39.2313 72.7681C42.0416 72.8832 43.7542 72.2278 44.4287 70.7794C45.285 68.9405 43.9572 66.2004 41.6599 65.0648C40.9805 64.7291 40.7425 64.6701 39.9099 64.6313C39.1643 64.5965 38.8192 64.6319 38.3849 64.7876ZM38.7692 66.3852C37.4313 66.8633 36.3398 68.2793 36.3355 69.5422C36.3341 69.9652 36.3915 70.1213 36.6459 70.3869C37.1869 70.9515 37.8452 71.1017 39.7665 71.0986C41.3096 71.0962 41.5138 71.0727 42.0401 70.8373C42.7963 70.4991 43.0477 70.1724 43.0476 69.528C43.0474 68.3888 41.8468 66.8072 40.6805 66.4098C40.066 66.2004 39.3135 66.1906 38.7692 66.3852ZM54.7575 70.8553C54.4933 71.039 54.1024 71.6696 53.215 73.3435L52.0265 75.5857L57.8731 75.6141C61.0887 75.6296 66.3492 75.6296 69.5632 75.6141L75.4068 75.5857L74.2214 73.3435C73.3341 71.6653 72.947 71.0394 72.6819 70.8553L72.3279 70.6092H63.7196H55.1114L54.7575 70.8553ZM49.2152 77.3876C48.913 77.5105 48.5165 78.0201 48.5165 78.2856C48.5165 78.6289 48.8084 79.0888 49.115 79.2285C49.3327 79.3277 52.8542 79.3592 63.7302 79.3592C79.4077 79.3592 78.5262 79.3962 78.8043 78.7249C78.9708 78.3231 78.87 77.9192 78.5219 77.5922L78.2489 77.3357L63.8476 77.3147C55.9268 77.3031 49.3423 77.3359 49.2152 77.3876Z" fill="#2A9D8F"/>
</g>
<defs>
<clipPath id="clip0_555_563">
<rect width="56" height="56" fill="white" transform="translate(25 25)"/>
</clipPath>
</defs>
</svg>
