<svg width="40" height="36" viewBox="0 0 40 36" fill="none" xmlns="http://www.w3.org/2000/svg">
<path d="M36.1565 8.57143H30.6986L27.5478 5.14286H17.2174V8.57143H26.0327L29.1835 12H36.1565V32.5714H8.6087V17.1429H5.16522V32.5714C5.16522 34.4571 6.71478 36 8.6087 36H36.1565C38.0504 36 39.6 34.4571 39.6 32.5714V12C39.6 10.1143 38.0504 8.57143 36.1565 8.57143ZM13.7739 22.2857C13.7739 27.0171 17.6306 30.8571 22.3826 30.8571C27.1346 30.8571 30.9913 27.0171 30.9913 22.2857C30.9913 17.5543 27.1346 13.7143 22.3826 13.7143C17.6306 13.7143 13.7739 17.5543 13.7739 22.2857ZM22.3826 17.1429C25.2235 17.1429 27.5478 19.4571 27.5478 22.2857C27.5478 25.1143 25.2235 27.4286 22.3826 27.4286C19.5417 27.4286 17.2174 25.1143 17.2174 22.2857C17.2174 19.4571 19.5417 17.1429 22.3826 17.1429ZM8.6087 8.57143H13.7739V5.14286H8.6087V0H5.16522V5.14286H0V8.57143H5.16522V13.7143H8.6087V8.57143Z" fill="white"/>
<path d="M36.1565 8.57143H30.6986L27.5478 5.14286H17.2174V8.57143H26.0327L29.1835 12H36.1565V32.5714H8.6087V17.1429H5.16522V32.5714C5.16522 34.4571 6.71478 36 8.6087 36H36.1565C38.0504 36 39.6 34.4571 39.6 32.5714V12C39.6 10.1143 38.0504 8.57143 36.1565 8.57143ZM13.7739 22.2857C13.7739 27.0171 17.6306 30.8571 22.3826 30.8571C27.1346 30.8571 30.9913 27.0171 30.9913 22.2857C30.9913 17.5543 27.1346 13.7143 22.3826 13.7143C17.6306 13.7143 13.7739 17.5543 13.7739 22.2857ZM22.3826 17.1429C25.2235 17.1429 27.5478 19.4571 27.5478 22.2857C27.5478 25.1143 25.2235 27.4286 22.3826 27.4286C19.5417 27.4286 17.2174 25.1143 17.2174 22.2857C17.2174 19.4571 19.5417 17.1429 22.3826 17.1429ZM8.6087 8.57143H13.7739V5.14286H8.6087V0H5.16522V5.14286H0V8.57143H5.16522V13.7143H8.6087V8.57143Z" fill="#2A9D8F"/>
</svg>
