<svg width="80" height="80" viewBox="0 0 80 80" fill="none" xmlns="http://www.w3.org/2000/svg">
<circle cx="40" cy="40" r="39" fill="#FCFCFC" stroke="#2A9D8F" stroke-width="2"/>
<g clip-path="url(#clip0_470_419)">
<path fill-rule="evenodd" clip-rule="evenodd" d="M41.8304 19.1518C41.0381 19.4289 40.4502 19.9635 40.1021 20.7235C40.0149 20.9139 39.955 21.3561 39.9244 22.036L39.8781 23.0614L38.9347 23.1118C37.4949 23.1888 36.5543 23.6427 35.8489 24.6009C35.5055 25.0674 35.4258 25.2562 33.6537 29.797L33.106 31.2007L32.4275 31.243C31.0607 31.3282 30.2287 32.1371 30.2295 33.3797C30.2304 34.6519 31.1149 35.4866 32.4639 35.4883L33.0889 35.4891L33.3804 36.2479C33.5408 36.6653 33.6972 37.0712 33.7281 37.1502C33.7814 37.2862 33.4621 37.2938 27.7174 37.2938H21.6504L21.3737 37.4803C21.2214 37.5829 21.0129 37.7914 20.9103 37.9436L20.7238 38.2204V42.6647V47.1089L20.9136 47.2873C21.2511 47.6043 21.7094 47.4874 21.8636 47.045C21.9226 46.8759 21.9543 45.8572 21.9543 44.1312V41.4774H30.0343H38.1144V48.2765C38.1144 54.4148 38.1278 55.1171 38.252 55.5016L38.3895 55.9275L38.1358 56.442L37.8821 56.9565L37.3743 57.0096C35.9839 57.1549 35.0816 58.4482 35.5391 59.6402C35.5844 59.7584 34.936 59.7703 28.4409 59.7703C20.6206 59.7703 20.9632 59.7914 20.5354 59.283C20.3565 59.0704 20.3136 58.9369 20.3136 58.5917C20.3136 58.2175 20.3659 58.0824 20.7316 57.5111C21.3011 56.6215 21.7634 55.6599 21.8713 55.1402C21.9285 54.8645 21.9524 53.7652 21.9371 52.1051L21.9133 49.5021L21.6831 49.3041C21.4019 49.0624 21.2213 49.055 20.943 49.2739L20.7299 49.4415L20.7063 52.2495L20.6828 55.0575L20.4201 55.5887C20.2757 55.8809 19.9588 56.4337 19.716 56.8172C19.1709 57.678 19.0829 57.928 19.084 58.6136C19.0853 59.535 19.6075 60.3492 20.4695 60.7738L20.8468 60.9598H40.0422H59.2375L59.6243 60.7324C60.6367 60.1373 60.929 58.9669 60.3174 57.9579C59.9908 57.4192 59.4528 57.0985 58.7201 57.0057L58.2028 56.9403L57.1321 54.9305C56.5432 53.8251 55.946 52.7994 55.8051 52.6511C55.6643 52.5028 55.3545 52.2894 55.1169 52.177C54.8745 52.0624 54.6847 51.9178 54.6847 51.8479C54.6847 51.662 54.4541 51.2424 54.1362 50.8499C53.8104 50.4477 53.2553 50.0981 52.7312 49.965L52.3657 49.8722L52.1889 49.2637C51.9679 48.5033 51.6537 47.9654 51.1183 47.4306C50.1324 46.4459 48.6782 46.0389 47.3037 46.3628C45.9237 46.6881 44.6782 47.8871 44.3449 49.2111C44.2563 49.5625 44.227 49.5912 43.7874 49.7547C42.9196 50.0778 42.1574 50.8073 41.8418 51.6172C41.7213 51.9264 41.6719 51.9649 41.2454 52.0837C40.6054 52.2619 40.1677 52.6615 39.7181 53.4787L39.3479 54.1512L39.3464 48.9217L39.3449 43.6922L45.9279 43.6908C53.1672 43.6893 53.1819 43.6884 54.1099 43.1937C54.7162 42.8706 55.3319 42.2299 55.6481 41.5931C55.7805 41.3264 56.3802 39.844 56.9809 38.2987L58.073 35.4891L58.6962 35.4883C60.0442 35.4866 60.9128 34.6598 60.9173 33.3742C60.9194 32.7558 60.792 32.422 60.3789 31.9649C59.9271 31.4647 59.5334 31.293 58.7221 31.2424C58.0739 31.202 58.0304 31.1874 57.9557 30.9859C57.4421 29.601 56.9271 28.3799 56.8049 28.2577C56.4646 27.9174 55.8332 28.1868 55.8332 28.6724C55.8332 28.8033 56.0324 29.4217 56.2761 30.0464L56.7189 31.1825L49.9682 31.2235C43.4761 31.2629 43.2109 31.2705 43.0449 31.4208C42.8094 31.634 42.817 32.0453 43.0608 32.2744L43.2494 32.4516L51.2297 32.4732L59.2099 32.495L59.4493 32.7629C59.7893 33.1434 59.7891 33.6786 59.4489 34.0188L59.2091 34.2586H45.5902H31.9713L31.7601 34.0741C31.3496 33.7152 31.3504 33.0821 31.7618 32.6955L31.9751 32.495L36.4188 32.4539C38.8628 32.4314 40.9109 32.3817 40.9701 32.3434C41.2775 32.1448 41.2431 31.4938 40.9164 31.3319C40.8416 31.2948 39.3528 31.246 37.6078 31.2235L34.4352 31.1825L35.5002 28.4414C36.0859 26.9338 36.6738 25.5489 36.8068 25.3637C37.0873 24.9731 37.6895 24.5542 38.1572 24.4244C38.3837 24.3615 40.6577 24.3336 45.5903 24.3333C52.027 24.3329 52.7375 24.3459 53.1245 24.4709C53.7045 24.6582 54.319 25.223 54.6083 25.8348C54.7332 26.0988 54.8995 26.3858 54.9778 26.4723C55.1804 26.6961 55.5521 26.6722 55.805 26.4192C55.975 26.2492 56.0058 26.1584 55.9648 25.9475C55.8704 25.4619 55.4225 24.6785 54.9874 24.2379C54.1606 23.4006 53.3251 23.1024 51.8068 23.1024H50.8499L50.8102 22.1795C50.7809 21.5006 50.7229 21.1334 50.5907 20.7901C50.3528 20.172 49.7775 19.5668 49.1476 19.2721L48.6554 19.0418L45.4562 19.0221C42.543 19.0043 42.2189 19.0158 41.8304 19.1518ZM42.2053 20.3092C41.8615 20.4154 41.5147 20.7113 41.3128 21.0705C41.1548 21.3517 41.1246 21.5314 41.1173 22.2323L41.1086 23.0614L45.363 23.0826L49.6175 23.1039L49.5832 22.2623C49.5422 21.2571 49.3701 20.8459 48.8445 20.498L48.5036 20.2723L45.4624 20.2574C43.7897 20.2492 42.3239 20.2725 42.2053 20.3092ZM41.5657 26.9279C41.427 27.1042 41.3957 27.2609 41.3957 27.7782C41.3957 28.557 41.5632 28.8446 42.0169 28.8446C42.5068 28.8446 42.6261 28.6357 42.6261 27.7782C42.6261 27.1492 42.6019 27.0156 42.4621 26.8758C42.2178 26.6315 41.7788 26.657 41.5657 26.9279ZM45.1577 26.8686C44.9796 27.0127 44.964 27.086 44.964 27.7782C44.964 28.4703 44.9796 28.5436 45.1577 28.6877C45.4087 28.8911 45.7821 28.8878 45.9894 28.6805C46.1292 28.5407 46.1535 28.4071 46.1535 27.7782C46.1535 27.1492 46.1292 27.0156 45.9894 26.8758C45.7821 26.6685 45.4087 26.6652 45.1577 26.8686ZM48.6965 26.8758C48.5567 27.0156 48.5324 27.1492 48.5324 27.7782C48.5324 28.6357 48.6517 28.8446 49.1416 28.8446C49.5954 28.8446 49.7629 28.557 49.7629 27.7782C49.7629 27.2609 49.7315 27.1042 49.5928 26.9279C49.3798 26.657 48.9407 26.6315 48.6965 26.8758ZM34.4582 35.6327C34.4872 35.7116 34.6451 36.1176 34.809 36.535L35.107 37.2938H36.7378C38.5601 37.2938 38.6775 37.3213 39.074 37.8409L39.3039 38.142L39.3282 40.3042L39.3526 42.4663L46.1368 42.4435C52.8374 42.421 52.9257 42.4186 53.2944 42.248C53.7444 42.0398 54.2081 41.6452 54.4357 41.2771C54.5658 41.0666 56.7355 35.6313 56.7355 35.5159C56.7355 35.5012 51.7113 35.4891 45.5705 35.4891C34.9717 35.4891 34.4082 35.4964 34.4582 35.6327ZM41.7501 37.9637C41.4748 38.0997 41.3739 38.4491 41.4091 39.1463C41.4362 39.6823 41.4684 39.7948 41.6324 39.9277C41.8938 40.1394 42.1838 40.1225 42.4248 39.8815C42.6068 39.6995 42.6261 39.6135 42.6261 38.9882C42.6261 38.4486 42.5946 38.259 42.4826 38.1266C42.3055 37.9174 41.9874 37.8466 41.7501 37.9637ZM45.2105 38.0526C44.8338 38.3779 44.8195 39.5755 45.1884 39.9191C45.4137 40.1291 45.6652 40.127 45.9373 39.9128C46.1433 39.7508 46.1535 39.7067 46.1535 38.9754C46.1535 38.2441 46.1433 38.2001 45.9373 38.0381C45.6597 37.8196 45.4762 37.8233 45.2105 38.0526ZM48.7338 38.0694C48.5499 38.2532 48.5324 38.3347 48.5324 39.0068C48.5324 39.7042 48.5437 39.7517 48.7485 39.9128C49.0174 40.1243 49.2772 40.1293 49.5261 39.9277C49.6902 39.7948 49.7223 39.6823 49.7494 39.1463C49.7856 38.4302 49.6829 38.0967 49.3843 37.9607C49.0848 37.8242 48.9576 37.8454 48.7338 38.0694ZM21.9543 39.3856V40.2469H30.0343H38.1144V39.3856V38.5243H30.0343H21.9543V39.3856ZM29.5106 43.8117C29.0907 43.9469 28.6569 44.336 28.4091 44.7996C28.1665 45.2534 28.1694 46.1389 28.4149 46.6121C29.1103 47.9524 30.8785 47.9765 31.5689 46.6551C31.8342 46.1472 31.8814 45.3885 31.678 44.9016C31.3064 44.0123 30.3623 43.5375 29.5106 43.8117ZM29.6903 45.1206C29.235 45.5122 29.4519 46.3993 30.0028 46.3993C30.5452 46.3993 30.7883 45.5461 30.3662 45.1241C30.1138 44.8717 29.9805 44.871 29.6903 45.1206ZM25.6047 45.6539C24.7246 45.8744 24.1672 46.6336 24.1709 47.6066C24.173 48.17 24.3615 48.6298 24.749 49.0173C25.1051 49.3735 25.4563 49.5164 25.9745 49.5164C26.9003 49.5164 27.6493 48.7755 27.7546 47.7553C27.8856 46.4856 26.7429 45.3686 25.6047 45.6539ZM33.7258 45.6556C32.8376 45.8719 32.2955 46.607 32.292 47.5999C32.2897 48.2519 32.5974 48.8742 33.0953 49.2242C33.5605 49.5511 34.3188 49.6154 34.7989 49.3685C35.1743 49.1756 35.4918 48.8531 35.7034 48.45C35.9102 48.0563 35.9104 47.1217 35.7038 46.7274C35.445 46.2335 34.9936 45.8304 34.5531 45.6995C34.1117 45.5684 34.089 45.5672 33.7258 45.6556ZM25.7535 46.892C25.1701 47.1271 25.3531 48.286 25.9738 48.286C26.5244 48.286 26.7417 47.4826 26.3082 47.0492C26.0495 46.7905 26.0238 46.7832 25.7535 46.892ZM33.8746 46.892C33.2813 47.1311 33.4559 48.286 34.0854 48.286C34.3862 48.286 34.5903 48.0505 34.6453 47.6401C34.6841 47.351 34.6583 47.2781 34.4396 47.0594C34.1703 46.7901 34.1457 46.7828 33.8746 46.892ZM47.507 47.5753C46.3545 47.9595 45.595 48.8218 45.4506 49.9101C45.373 50.4956 45.1864 50.7134 44.7001 50.7863C44.0632 50.8819 43.4408 51.2636 43.1752 51.7218L43.027 51.9774H48.2512H53.4753L53.2731 51.7151C52.9862 51.3431 52.5199 51.127 51.9222 51.089C51.2598 51.0467 51.1729 50.9459 51.0773 50.1078C50.9521 49.0099 50.4049 48.2038 49.4767 47.7497C48.9457 47.4898 48.0116 47.4072 47.507 47.5753ZM29.0391 48.8417C27.6192 49.3505 26.5548 50.5605 26.306 51.9488C26.142 52.8645 26.4756 53.7196 27.1785 54.1853C27.8048 54.6002 28.5003 54.779 29.674 54.8271C31.7817 54.9134 33.0661 54.4218 33.572 53.3355C34.2142 51.9564 33.2184 49.9012 31.4954 49.0496C30.9858 48.7978 30.8073 48.7535 30.1829 48.7244C29.6237 48.6983 29.3649 48.7249 29.0391 48.8417ZM29.3274 50.0399C28.324 50.3984 27.5053 51.4604 27.5021 52.4076C27.5011 52.7248 27.5441 52.842 27.7349 53.0412C28.1407 53.4646 28.6344 53.5772 30.0754 53.5749C31.2327 53.5731 31.3858 53.5555 31.7805 53.379C32.3477 53.1253 32.5363 52.8803 32.5362 52.397C32.5361 51.5426 31.6356 50.3564 30.7609 50.0583C30.3 49.9012 29.7356 49.8939 29.3274 50.0399ZM41.3186 53.3924C41.1205 53.5302 40.8273 54.0031 40.1618 55.2586L39.2703 56.9403L43.6553 56.9615C46.067 56.9732 50.0124 56.9732 52.4229 56.9615L56.8056 56.9403L55.9165 55.2586C55.2511 53.9999 54.9608 53.5306 54.7619 53.3924L54.4964 53.2078H48.0402H41.584L41.3186 53.3924ZM37.1619 58.2916C36.9352 58.3839 36.6379 58.766 36.6379 58.9652C36.6379 59.2226 36.8568 59.5676 37.0867 59.6723C37.25 59.7467 39.8911 59.7703 48.0482 59.7703C59.8063 59.7703 59.1451 59.7982 59.3537 59.2946C59.4786 58.9933 59.403 58.6904 59.1419 58.4451L58.9372 58.2528L48.1362 58.237C42.1956 58.2283 37.2572 58.2529 37.1619 58.2916Z" fill="#2A9D8F"/>
</g>
<defs>
<clipPath id="clip0_470_419">
<rect width="42" height="42" fill="white" transform="translate(19 19)"/>
</clipPath>
</defs>
</svg>
