<svg width="20" height="20" viewBox="0 0 20 20" fill="none" xmlns="http://www.w3.org/2000/svg">
<path d="M13.5714 1.72894e-07C12.5676 -0.000230039 11.5776 0.23469 10.6809 0.685935C9.78417 1.13718 9.00561 1.7922 8.40762 2.59851C7.80962 3.40482 7.40881 4.34 7.2373 5.3291C7.0658 6.3182 7.12837 7.33372 7.42 8.29429L0 15.7143V20H4.28571L11.7057 12.58C12.5899 12.8484 13.5216 12.923 14.4373 12.7988C15.3529 12.6745 16.2311 12.3543 17.0118 11.86C17.7925 11.3657 18.4575 10.7089 18.9614 9.93436C19.4654 9.15981 19.7964 8.28572 19.9319 7.37166C20.0675 6.45761 20.0044 5.52507 19.747 4.6376C19.4895 3.75013 19.0438 2.9286 18.4401 2.22897C17.8365 1.52935 17.0891 0.968087 16.2489 0.583436C15.4087 0.198785 14.4955 -0.000214124 13.5714 1.72894e-07ZM13.5714 11.4286C13.0797 11.4283 12.5906 11.3556 12.12 11.2129L11.3007 10.9643L10.6957 11.5693L8.42357 13.8414L7.43857 12.8571L6.42857 13.8671L7.41357 14.8521L6.28071 15.985L5.29571 15L4.28571 16.01L5.27071 16.995L3.69429 18.5714H1.42857V16.3057L8.43 9.30429L9.03571 8.69929L8.78714 7.88C8.48184 6.87357 8.50168 5.79649 8.84382 4.80198C9.18597 3.80746 9.833 2.94616 10.6929 2.34059C11.5528 1.73502 12.5817 1.41601 13.6334 1.42895C14.685 1.44189 15.7058 1.78611 16.5505 2.41266C17.3952 3.0392 18.0209 3.91616 18.3385 4.91879C18.656 5.92142 18.6494 6.99866 18.3194 7.99727C17.9894 8.99589 17.353 9.86504 16.5005 10.4811C15.6481 11.0971 14.6231 11.4287 13.5714 11.4286Z" fill="#02AFB0"/>
<path d="M14.286 7.14328C15.075 7.14328 15.7146 6.50368 15.7146 5.7147C15.7146 4.92573 15.075 4.28613 14.286 4.28613C13.497 4.28613 12.8574 4.92573 12.8574 5.7147C12.8574 6.50368 13.497 7.14328 14.286 7.14328Z" fill="#02AFB0"/>
</svg>
