<svg width="80" height="80" viewBox="0 0 80 80" fill="none" xmlns="http://www.w3.org/2000/svg">
<circle cx="40" cy="40" r="39" fill="#FCFCFC" stroke="#2A9D8F" stroke-width="2"/>
<path d="M38.0543 51.0077H39.0543V50.0077V48.9883H41.0146V50.0077V51.0077H42.0146H42.9947V53.0467H42.0146H41.0146V54.0467V55.0661H39.0543V54.0467V53.0467H38.0543H37.0742V51.0077H38.0543Z" fill="#2A9D8F" stroke="#2A9D8F" stroke-width="2" stroke-linecap="round"/>
<path d="M39.8526 59.4245C37.2183 59.4245 34.9603 61.3306 30.8208 60.9494C26.6812 59.8057 26.0403 57.5285 25.909 54.8498C25.5351 47.2254 30.4296 49.4846 32.3261 47.2254C34.5678 44.5567 35.713 40.3633 39.4762 40.3633C44.3829 40.3633 45.2152 46.0292 46.9866 47.2254C49.2445 48.7502 53.7766 48.7502 53.4003 54.8498C53.1379 59.1037 50.7566 60.5064 48.1321 60.9494C45.8738 61.3306 41.7715 59.4245 39.8526 59.4245Z" stroke="#2A9D8F" stroke-width="2"/>
<path d="M52.7775 29.2743C52.4889 31.4757 51.5663 33.3405 50.3556 34.5833C49.1449 35.8261 47.7002 36.4042 46.3 36.2159C44.8998 36.0276 43.6541 35.0875 42.8056 33.5678C41.9569 32.0479 41.5467 30.0038 41.8352 27.8024C42.1238 25.601 43.0464 23.7362 44.2572 22.4933C45.4678 21.2506 46.9125 20.6724 48.3127 20.8608C49.7129 21.0491 50.9586 21.9891 51.8072 23.5089C52.6558 25.0288 53.0661 27.0728 52.7775 29.2743Z" stroke="#2A9D8F" stroke-width="2"/>
<path d="M61.8598 42.0356C60.7361 45.9878 57.5294 48.0323 55.0274 47.3023C52.5254 46.5723 50.8834 43.1131 52.007 39.1609C53.1307 35.2087 56.3375 33.1641 58.8395 33.8941C61.3415 34.6241 62.9835 38.0833 61.8598 42.0356Z" stroke="#2A9D8F" stroke-width="2"/>
<path d="M18.1402 41.2738C19.2639 45.226 22.4706 47.2706 24.9726 46.5406C27.4746 45.8106 29.1166 42.3514 27.993 38.3992C26.8693 34.447 23.6625 32.4024 21.1605 33.1324C18.6585 33.8624 17.0165 37.3216 18.1402 41.2738Z" stroke="#2A9D8F" stroke-width="2"/>
<path d="M26.9186 29.43C27.5116 33.954 30.7357 36.7909 33.7005 36.3921C36.6654 35.9933 39.0469 32.4024 38.4539 27.8784C37.8609 23.3543 34.6368 20.5175 31.672 20.9163C28.7072 21.3151 26.3256 24.906 26.9186 29.43Z" stroke="#2A9D8F" stroke-width="2"/>
</svg>
