<svg width="80" height="80" viewBox="0 0 80 80" fill="none" xmlns="http://www.w3.org/2000/svg">
<circle cx="40" cy="40" r="39" fill="#FCFCFC" stroke="#2A9D8F" stroke-width="2"/>
<path d="M40.4241 61H19.2832V48.2297C23.7933 46.527 27.1758 47.3784 28.5852 44.8243C29.5818 43.0183 33.265 32.723 35.3503 29.7838C36.7597 27.7973 37.6054 26.9459 39.0147 24.9595C39.4658 21.5541 42.2094 19.5676 43.5248 19L44.6523 25.527C45.9678 25.9054 48.7678 27.0595 49.4443 28.6486C50.2899 30.6351 50.5718 31.2027 51.9812 32.3378C53.3906 33.473 61.0013 35.4595 61.0013 36.027C61.0013 37.1622 59.8738 38.8649 58.1825 39.4324C56.4913 40.2838 57.3369 40.8514 54.5181 42.2703C53.3906 42.8378 53.3646 42.0802 48.5986 42.8378C43.2429 43.6892 43.2429 55.3243 40.4241 61Z" stroke="#2A9D8F" stroke-width="2" stroke-linecap="round"/>
<rect x="0.367355" y="1.36993" width="21.1532" height="3.66618" rx="1.83309" transform="matrix(0.864661 0.502356 -0.497306 0.867575 27.4829 39.4656)" fill="#FCFCFC" stroke="#2A9D8F" stroke-width="2"/>
<path d="M25.4832 41.9859L19 37.4453" stroke="#2A9D8F" stroke-width="2" stroke-linecap="round"/>
<path d="M24.356 53.2013H25.356V52.2013V51.2148H27.3023V52.2013V53.2013H28.3023H29.2754V55.1743H28.3023H27.3023V56.1743V57.1608H25.356V56.1743V55.1743H24.356H23.3828V53.2013H24.356Z" fill="#2A9D8F" stroke="#2A9D8F" stroke-width="2" stroke-linecap="round"/>
<rect x="44.6504" y="31.7695" width="1.69128" height="2.27027" rx="0.845638" fill="#2A9D8F"/>
</svg>
