<svg width="80" height="80" viewBox="0 0 80 80" fill="none" xmlns="http://www.w3.org/2000/svg">
<circle cx="40" cy="40" r="39" fill="#FCFCFC" stroke="#2A9D8F" stroke-width="2"/>
<path d="M51.0575 44.6702L53.1613 57.6423L51.9566 62.251C51.8416 62.691 51.444 62.9981 50.9891 62.9981H39.516C39.1286 62.9981 38.7761 62.7743 38.6111 62.4238L36.507 57.9519C36.4126 57.7512 36.3875 57.5249 36.4358 57.3085L39.2669 44.6126C39.3688 44.1554 39.7745 43.8303 40.2429 43.8303H40.5613C40.8413 42.3269 42.1853 39.3766 45.3213 39.6021C49.2413 39.8839 49.5815 43.8303 49.6914 43.8303H50.0704C50.5609 43.8303 50.979 44.186 51.0575 44.6702Z" fill="#FCFCFC"/>
<path d="M53.1613 57.6423L51.0575 44.6702C50.979 44.186 50.5609 43.8303 50.0704 43.8303H49.6914M53.1613 57.6423L51.9566 62.251C51.8416 62.691 51.444 62.998 50.9891 62.998H39.516C39.1286 62.998 38.7761 62.7743 38.6111 62.4238L36.507 57.9519C36.4126 57.7512 36.3875 57.5249 36.4358 57.3085L39.2669 44.6126C39.3688 44.1554 39.7745 43.8303 40.2429 43.8303H40.5613M53.1613 57.6423H42.8013M40.5613 43.8303C40.8413 42.3269 42.1853 39.3766 45.3213 39.6021C49.2413 39.8839 49.5815 43.8303 49.6914 43.8303M40.5613 43.8303H49.6914" stroke="#2A9D8F" stroke-width="2" stroke-linecap="round"/>
<path d="M53.8916 36.5894L53.0407 30.5936C52.9553 29.9915 53.4227 29.4531 54.0308 29.4531H59.9663C60.5312 29.4531 60.9839 29.9206 60.9658 30.4852L60.7541 37.0942C60.7352 37.6829 60.2141 38.1279 59.6297 38.0543L54.7568 37.4411C54.3093 37.3848 53.9549 37.036 53.8916 36.5894Z" fill="#FCFCFC" stroke="#2A9D8F" stroke-width="2" stroke-linecap="round"/>
<path d="M51.7589 35.3746C51.7589 35.4773 52.0296 35.6227 52.3862 35.7685C53.0233 36.0289 53.6792 35.5022 53.6411 34.8149L53.4723 31.7642C53.4514 31.3857 53.2181 31.0515 52.87 30.9013L51.8186 30.4477C51.5989 30.3529 51.3542 30.3395 51.1258 30.411C48.32 31.2893 43.2275 32.9035 42.7981 33.1196C42.2381 33.4015 40.8386 37.0659 40.5586 38.4753C40.3643 39.4532 41.4198 39.6536 42.1904 39.6283C42.4043 39.6213 42.6136 39.5121 42.7688 39.3648C52.8464 29.7971 43.9899 40.9477 44.7589 41.0122C47.2729 41.2231 49.3298 39.971 50.1964 39.1931C50.3062 39.0945 50.3842 38.9676 50.4337 38.8285C50.9183 37.4683 51.7589 35.1606 51.7589 35.3746Z" fill="#FCFCFC" stroke="#2A9D8F" stroke-width="2" stroke-linecap="round"/>
<path d="M19 32.2307V23.9727C19 23.4204 19.4477 22.9727 20 22.9727H23.32C23.8723 22.9727 24.32 23.4204 24.32 23.9727V31.703C24.32 32.1946 23.9626 32.6134 23.477 32.6906L20.157 33.2183C19.5497 33.3148 19 32.8456 19 32.2307Z" fill="#FCFCFC" stroke="#2A9D8F" stroke-width="2" stroke-linecap="round"/>
<path d="M45.0393 22.4096C45.0393 23.0795 40.096 23.8048 37.5529 24.0926C37.5029 24.0982 37.4549 24.1074 37.4063 24.1204L35.4038 24.658C34.5746 24.8806 34.4387 25.9004 35.2095 26.2786C36.8422 27.0795 39.1167 28.04 40.8393 28.329C43.044 28.6989 45.7762 27.7035 47.4599 26.867C47.9785 26.6093 48.1177 25.9535 47.7779 25.4846C46.6095 23.8718 45.0393 21.8432 45.0393 22.4096Z" fill="#FCFCFC" stroke="#2A9D8F" stroke-width="2" stroke-linecap="round"/>
<path d="M31.7743 32.6801L25.2221 29.9928C24.8467 29.8388 24.6016 29.4733 24.6016 29.0676V25.01C24.6016 24.6264 24.821 24.2765 25.1665 24.1096L31.1693 21.2089C31.4426 21.0768 31.7601 21.0752 32.033 21.2078C33.8922 22.1113 36.9216 23.6839 36.9216 24.1007C36.9216 24.5176 35.8048 24.8061 35.12 24.9215C35.015 24.9392 34.8979 24.935 34.7931 24.9166C26.6596 23.4913 34.4119 26.3239 39.0485 28.018L39.1213 28.0446C39.961 28.3514 39.983 29.4985 39.1608 29.8497L32.5465 32.6746C32.3002 32.7797 32.0221 32.7818 31.7743 32.6801Z" fill="#FCFCFC" stroke="#2A9D8F" stroke-width="2" stroke-linecap="round"/>
</svg>
