<svg width="55" height="55" viewBox="0 0 55 55" fill="none" xmlns="http://www.w3.org/2000/svg">
<path d="M27.4995 33.0067C30.5335 33.0067 33.007 30.5376 33.007 27.5014C33.007 26.3029 32.6149 25.1963 31.9646 24.2924C30.9633 22.9055 29.3372 21.9961 27.5006 21.9961C25.6629 21.9961 24.0379 22.9044 23.0354 24.2913C22.3841 25.1952 21.9952 26.3018 21.9941 27.5003C21.993 30.5365 24.4643 33.0067 27.4995 33.0067Z" fill="white"/>
<path d="M39.5186 20.7663V16.1516V15.4648L38.8273 15.4671L34.2148 15.4815L34.2337 20.7841L39.5186 20.7663Z" fill="white"/>
<path d="M27.5 0C12.3366 0 0 12.3366 0 27.5C0 42.6634 12.3366 55 27.5 55C42.6634 55 55 42.6634 55 27.5C55 12.3366 42.6634 0 27.5 0ZM43.1398 24.291V37.0961C43.1398 40.4314 40.4281 43.142 37.095 43.142H17.905C14.5708 43.142 11.8602 40.4314 11.8602 37.0961V24.291V17.9061C11.8602 14.5719 14.5708 11.8614 17.905 11.8614H37.0939C40.4281 11.8614 43.1398 14.5719 43.1398 17.9061V24.291Z" fill="white"/>
<path d="M36.0574 27.502C36.0574 32.2175 32.2214 36.0568 27.5037 36.0568C22.786 36.0568 18.95 32.2175 18.95 27.502C18.95 26.3677 19.1759 25.2833 19.5792 24.293H14.9102V37.0981C14.9102 38.753 16.2538 40.0933 17.9076 40.0933H37.0965C38.7503 40.0933 40.0939 38.753 40.0939 37.0981V24.293H35.4238C35.8281 25.2833 36.0574 26.3677 36.0574 27.502Z" fill="white"/>
</svg>
