<svg width="20" height="20" viewBox="0 0 20 20" fill="none" xmlns="http://www.w3.org/2000/svg">
<path d="M19.0372 13.4459L14.3261 11.3349L14.3131 11.3289C14.0686 11.2243 13.8018 11.1823 13.5369 11.2068C13.272 11.2312 13.0174 11.3213 12.7961 11.4689C12.7701 11.4861 12.745 11.5048 12.7211 11.5249L10.2871 13.5999C8.74509 12.8509 7.15308 11.2709 6.40407 9.74889L8.48209 7.27787C8.50209 7.25287 8.52109 7.22787 8.53909 7.20087C8.68352 6.98017 8.77115 6.72718 8.79418 6.46443C8.81721 6.20168 8.77493 5.93731 8.67109 5.69485V5.68285L6.55407 0.963807C6.41681 0.647069 6.18079 0.383216 5.88125 0.211638C5.58171 0.0400599 5.23471 -0.0300417 4.89206 0.0117978C3.53701 0.190106 2.29321 0.855574 1.39296 1.88391C0.492701 2.91225 -0.00244095 4.23313 9.04873e-06 5.59985C9.04873e-06 13.5399 6.46007 20 14.4001 20C15.7669 20.0024 17.0878 19.5073 18.1161 18.607C19.1444 17.7068 19.8099 16.463 19.9882 15.1079C20.0301 14.7654 19.9602 14.4185 19.7888 14.119C19.6174 13.8194 19.3537 13.5834 19.0372 13.4459ZM14.4001 18.4C11.0065 18.3963 7.75287 17.0465 5.35319 14.6468C2.9535 12.2471 1.60373 8.99352 1.60002 5.59985C1.59626 4.62333 1.94808 3.67883 2.58977 2.94273C3.23146 2.20664 4.11915 1.72928 5.08706 1.59981C5.08666 1.6038 5.08666 1.60782 5.08706 1.61181L7.18708 6.31186L5.12006 8.78588C5.09908 8.81002 5.08002 8.83577 5.06306 8.86288C4.91257 9.0938 4.82429 9.35968 4.80677 9.63475C4.78925 9.90982 4.84308 10.1848 4.96306 10.4329C5.86907 12.2859 7.73608 14.1389 9.6091 15.0439C9.85907 15.1628 10.1356 15.2148 10.4117 15.1948C10.6877 15.1748 10.9539 15.0836 11.1841 14.9299C11.2098 14.9126 11.2345 14.894 11.2581 14.8739L13.6891 12.7999L18.3892 14.9049H18.4002C18.2723 15.8742 17.7957 16.7637 17.0594 17.407C16.3232 18.0503 15.3778 18.4033 14.4001 18.4Z" fill="#02AFB0"/>
</svg>
