<svg width="80" height="80" viewBox="0 0 80 80" fill="none" xmlns="http://www.w3.org/2000/svg">
<circle cx="40" cy="40" r="39" fill="#FCFCFC" stroke="#2A9D8F" stroke-width="2"/>
<path fill-rule="evenodd" clip-rule="evenodd" d="M30.0658 19.3006C26.9555 19.9939 24.9168 21.1325 22.8248 23.3449C21.116 25.152 20.4115 26.3067 19.6096 28.6162C19.0934 30.1023 19.0029 30.7229 19 32.795C18.994 36.8583 20.2035 39.7796 23.0762 42.6413C25.8071 45.362 28.8442 46.6371 32.6159 46.6471C35.7158 46.655 37.8641 46.062 40.251 44.5387L41.4263 43.7887L43.8081 46.1723L46.19 48.5557L45.8092 49.1353C45.5861 49.4749 45.481 49.9215 45.5553 50.2142C45.6252 50.4887 48.011 53.028 50.8571 55.8567C54.7169 59.6928 56.167 61 56.5623 61C57.3045 61 61 57.3134 61 56.573C61 56.1786 59.6897 54.7321 55.8443 50.8816C53.0086 48.0423 50.4633 45.6622 50.1881 45.5925C49.8947 45.5184 49.447 45.6233 49.1066 45.8458L48.5257 46.2257L46.1365 43.8496L43.7472 41.4735L44.4989 40.3011C46.0259 37.9199 46.6204 35.7767 46.6124 32.6844C46.6026 28.9354 45.3302 25.9158 42.5947 23.1491C39.2711 19.7875 34.482 18.3164 30.0658 19.3006ZM31.3719 21.2241C27.5361 21.6141 23.9914 24.0974 22.2589 27.6086C21.3468 29.4571 21.0969 30.5965 21.0902 32.9377C21.0709 39.7403 26.6602 44.9745 33.5029 44.5619C39.586 44.1949 44.1543 39.6376 44.5222 33.5692C44.9714 26.1547 38.9037 20.4584 31.3719 21.2241ZM34.3899 31.5783C33.0215 33.4033 31.8088 34.8965 31.6948 34.8965C31.5808 34.8965 30.8284 34.3988 30.023 33.7905C28.3907 32.5578 27.6361 32.3999 27.2647 33.2133C26.9223 33.9628 27.1341 34.2265 29.4972 35.992C31.513 37.498 32.0139 37.7283 32.5213 37.3819C32.8173 37.1797 38.0007 30.3045 38.3145 29.698C38.711 28.9314 38.2673 28.27 37.3525 28.2634C36.9975 28.2609 36.2507 29.0965 34.3899 31.5783Z" fill="#2A9D8F"/>
</svg>
