<svg width="40" height="40" viewBox="0 0 40 40" fill="none" xmlns="http://www.w3.org/2000/svg">
<circle cx="20" cy="20" r="20" fill="#2D2D2D"/>
<path d="M27.8948 26.5919C26.8792 24.7442 25.2933 23.3045 23.3924 22.5045C24.3377 21.7696 25.0359 20.745 25.3882 19.5759C25.7406 18.4068 25.7291 17.1524 25.3554 15.9904C24.9818 14.8284 24.2649 13.8177 23.3063 13.1016C22.3477 12.3854 21.1961 12 20.0144 12C18.8328 12 17.6812 12.3854 16.7226 13.1016C15.764 13.8177 15.0471 14.8284 14.6735 15.9904C14.2998 17.1524 14.2883 18.4068 14.6406 19.5759C14.9929 20.745 15.6912 21.7696 16.6365 22.5045C14.7356 23.3045 13.1497 24.7442 12.1341 26.5919C12.0711 26.6968 12.0292 26.8138 12.0107 26.9358C11.9923 27.0578 11.9977 27.1825 12.0266 27.3023C12.0555 27.4221 12.1074 27.5347 12.1792 27.6333C12.2509 27.7319 12.341 27.8146 12.4442 27.8764C12.5474 27.9382 12.6615 27.9779 12.7798 27.993C12.8981 28.0082 13.0181 27.9986 13.1327 27.9647C13.2472 27.9308 13.3541 27.8734 13.4469 27.7959C13.5396 27.7184 13.6164 27.6223 13.6727 27.5134C15.0149 25.1084 17.3854 23.674 20.0144 23.674C22.6434 23.674 25.0139 25.1092 26.3562 27.5134C26.4781 27.7165 26.6714 27.8625 26.8952 27.9206C27.1191 27.9787 27.356 27.9443 27.5558 27.8246C27.7556 27.7049 27.9027 27.5094 27.9659 27.2794C28.0292 27.0493 28.0037 26.8028 27.8948 26.5919ZM16.1624 17.8382C16.1624 17.0484 16.3883 16.2764 16.8116 15.6198C17.2349 14.9632 17.8365 14.4514 18.5403 14.1491C19.2442 13.8469 20.0187 13.7679 20.7659 13.9219C21.5132 14.076 22.1995 14.4563 22.7382 15.0147C23.2769 15.5731 23.6438 16.2846 23.7925 17.0592C23.9411 17.8337 23.8648 18.6366 23.5732 19.3662C23.2817 20.0958 22.788 20.7194 22.1545 21.1582C21.521 21.5969 20.7763 21.8311 20.0144 21.8311C18.9932 21.8299 18.0141 21.4088 17.2919 20.6602C16.5698 19.9117 16.1636 18.8968 16.1624 17.8382Z" fill="white"/>
</svg>
