<svg width="80" height="80" viewBox="0 0 80 80" fill="none" xmlns="http://www.w3.org/2000/svg">
<circle cx="40" cy="40" r="39" fill="#FCFCFC" stroke="#2A9D8F" stroke-width="2"/>
<path fill-rule="evenodd" clip-rule="evenodd" d="M30.7881 19.1438C29.5195 19.4746 28.5699 20.3768 28.1553 21.645C28.03 22.0285 27.9856 22.0779 27.6889 22.1637C26.5295 22.4985 25.5177 23.4731 25.1636 24.596L25.0183 25.0568L24.4897 25.2323C23.4931 25.5631 22.7629 26.2516 22.249 27.3453L22.0286 27.8144L22.0071 42.8246C21.9885 55.9339 22.0013 57.888 22.1085 58.2558C22.5058 59.619 23.707 60.6957 25.0811 60.9201C25.3754 60.9682 30.0758 60.9995 37.064 60.9997C49.8316 61.0003 49.2202 61.0255 50.1707 60.4567C50.435 60.2986 50.7633 60.0616 50.9001 59.93C51.2326 59.6107 51.674 58.8723 51.8447 58.3502C51.97 57.9666 52.0144 57.9172 52.3111 57.8315C53.4705 57.4967 54.4823 56.5221 54.8364 55.3991L54.9817 54.9384L55.5103 54.7629C56.5069 54.4321 57.2371 53.7435 57.751 52.6499L57.9714 52.1807L57.9929 37.1706C58.0115 24.0613 57.9987 22.1072 57.8915 21.7394C57.4942 20.3762 56.293 19.2995 54.9189 19.0751C54.6235 19.0268 49.9279 18.9976 42.8787 19.0002C32.2782 19.0041 31.2786 19.016 30.7881 19.1438ZM31.2405 20.5478C30.6231 20.6994 30.0578 21.1252 29.7936 21.6375C29.7073 21.805 29.6366 21.9618 29.6366 21.9862C29.6366 22.0106 34.645 22.0305 40.7664 22.0305C50.5605 22.0305 51.9476 22.0457 52.3239 22.1572C53.4691 22.4964 54.4084 23.3903 54.834 24.546L55.0104 25.025L55.0516 39.2006L55.0927 53.376L55.4726 53.1357C55.6815 53.0035 55.9491 52.769 56.0673 52.6145C56.5622 51.9672 56.532 52.9817 56.532 36.9959C56.532 22.5814 56.5296 22.3584 56.368 21.9277C56.172 21.405 55.7394 20.9603 55.1749 20.7014L54.7637 20.5128L43.1255 20.5C36.7244 20.4929 31.3762 20.5144 31.2405 20.5478ZM27.958 23.6363C27.4996 23.8038 27.1069 24.1264 26.8286 24.564L26.5877 24.943L37.797 24.984L49.0063 25.025L49.4674 25.2012C50.7085 25.6752 51.5062 26.5254 51.8758 27.7678C51.9954 28.17 52.0084 29.5823 52.0084 42.2742V56.3349L52.1934 56.2802C52.7539 56.1145 53.3519 55.3374 53.4892 54.5957C53.5456 54.2913 53.5665 49.3316 53.5518 39.7052L53.53 25.2712L53.3335 24.8373C53.2203 24.5876 52.9828 24.2683 52.7737 24.0846C52.068 23.465 53.0006 23.5066 39.9648 23.513C30.0381 23.5179 28.2312 23.5365 27.958 23.6363ZM25.3057 26.5453C24.7934 26.6478 24.3423 26.9076 24.0159 27.2879C23.426 27.9753 23.468 26.7719 23.468 43.0037C23.468 57.5179 23.4693 57.6338 23.6355 58.077C23.8386 58.6184 24.3348 59.104 24.9122 59.3261C25.3051 59.4773 25.7087 59.4824 37.039 59.4824H48.7595L49.1805 59.2924C49.6719 59.0705 50.0257 58.7271 50.2945 58.2108L50.4867 57.8416V42.9921V28.1426L50.3056 27.8049C50.0137 27.2606 49.7287 26.9765 49.2287 26.7316L48.7595 26.5018L37.2035 26.4893C30.8477 26.4824 25.4937 26.5076 25.3057 26.5453ZM26.7794 28.145C26.6806 28.2141 26.5616 28.4078 26.5148 28.5757C26.4 28.9881 26.4 35.9935 26.5148 36.4059C26.6757 36.9836 26.5035 36.9624 30.9915 36.9594C34.0316 36.9575 35.056 36.9323 35.1545 36.8569C35.4485 36.6317 35.4763 36.4252 35.4763 34.4652V32.5318H34.7361H33.9958V34.0086V35.4853H30.9937H27.9916V32.4908V29.4963H30.2535H32.5153V28.7579V28.0195H29.7372C27.377 28.0195 26.932 28.0384 26.7794 28.145ZM36.9568 29.4963V30.2347H42.2207H47.4847V29.4963V28.7579H42.2207H36.9568V29.4963ZM32.5976 30.6038L30.9967 32.2023L30.4994 31.7106L30.0021 31.219L29.4718 31.7528L28.9415 32.2864L29.719 33.0653C30.5295 33.8771 30.8632 34.0721 31.2081 33.9355C31.3164 33.8926 32.2659 32.9955 33.3182 31.942L35.2313 30.0265L34.7148 29.516L34.1985 29.0054L32.5976 30.6038ZM36.9917 31.8212C36.9684 31.8816 36.9603 32.2231 36.9736 32.5801L36.9979 33.2292L42.2413 33.2503L47.4847 33.2714V32.4914V31.7114H42.2593C37.9708 31.7114 37.0263 31.7311 36.9917 31.8212ZM36.9568 35.4853V36.2237H42.2207H47.4847V35.4853V34.7469H42.2207H36.9568V35.4853ZM26.7794 38.6463C26.6806 38.7154 26.5616 38.9091 26.5148 39.077C26.4 39.4894 26.4 46.4948 26.5148 46.9072C26.6757 47.4849 26.5035 47.4637 30.9915 47.4607C34.0316 47.4588 35.056 47.4336 35.1545 47.3582C35.4485 47.133 35.4763 46.9265 35.4763 44.9665V43.0331H34.7361H33.9958V44.5099V45.9866H30.9937H27.9916V42.9921V39.9976H30.2535H32.5153V39.2592V38.5208H29.7372C27.377 38.5208 26.932 38.5397 26.7794 38.6463ZM36.9568 39.9976V40.736H42.2207H47.4847V39.9976V39.2592H42.2207H36.9568V39.9976ZM32.5976 41.1051L30.9967 42.7036L30.4994 42.2119L30.0021 41.7203L29.4718 42.2541L28.9415 42.7877L29.719 43.5666C30.5295 44.3784 30.8632 44.5734 31.2081 44.4368C31.3164 44.3939 32.2659 43.4968 33.3182 42.4433L35.2313 40.5278L34.7148 40.0173L34.1985 39.5067L32.5976 41.1051ZM36.9917 42.3225C36.9684 42.3829 36.9603 42.7244 36.9736 43.0814L36.9979 43.7305L42.2413 43.7516L47.4847 43.7727V42.9927V42.2127H42.2593C37.9708 42.2127 37.0263 42.2324 36.9917 42.3225ZM36.9568 45.9866V46.725H42.2207H47.4847V45.9866V45.2482H42.2207H36.9568V45.9866ZM26.7794 49.1476C26.6806 49.2167 26.5616 49.4104 26.5148 49.5783C26.4 49.9907 26.4 56.9961 26.5148 57.4085C26.6757 57.9862 26.5035 57.965 30.9915 57.962C34.0316 57.9601 35.056 57.9349 35.1545 57.8595C35.4485 57.6343 35.4763 57.4278 35.4763 55.4678V53.5344H34.7361H33.9958V55.0112V56.4879H30.9937H27.9916V53.4934V50.4989H30.2535H32.5153V49.7605V49.0221H29.7372C27.377 49.0221 26.932 49.041 26.7794 49.1476ZM36.9568 50.4989V51.2373H42.2207H47.4847V50.4989V49.7605H42.2207H36.9568V50.4989ZM32.5976 51.6064L30.9967 53.2049L30.4994 52.7132L30.0021 52.2216L29.4718 52.7554L28.9415 53.289L29.719 54.0679C30.5295 54.8797 30.8632 55.0747 31.2081 54.9381C31.3164 54.8952 32.2659 53.9981 33.3182 52.9446L35.2313 51.0291L34.7148 50.5186L34.1985 50.008L32.5976 51.6064ZM36.9917 52.8238C36.9684 52.8842 36.9603 53.2257 36.9736 53.5827L36.9979 54.2318L42.2413 54.2529L47.4847 54.274V53.494V52.714H42.2593C37.9708 52.714 37.0263 52.7337 36.9917 52.8238ZM36.9568 56.4879V57.2263H42.2207H47.4847V56.4879V55.7495H42.2207H36.9568V56.4879Z" fill="#2A9D8F"/>
</svg>
