<svg width="80" height="80" viewBox="0 0 80 80" fill="none" xmlns="http://www.w3.org/2000/svg">
<circle cx="40" cy="40" r="39" fill="#FCFCFC" stroke="#2A9D8F" stroke-width="2"/>
<path d="M21.8008 29.3603C25.8142 26.9336 36.529 23.5362 47.2812 29.3603" stroke="#2A9D8F" stroke-width="2" stroke-linecap="round"/>
<path d="M19.5586 27.3984V33.861C19.5586 34.0299 19.5998 34.196 19.6865 34.3411C24.3728 42.1793 44.1736 42.7099 49.1123 34.3413C49.1977 34.1965 49.2391 34.0304 49.2391 33.8623V27.3984" stroke="#2A9D8F" stroke-width="2" stroke-linecap="round"/>
<path d="M49.2422 31.3203H55.4023C57.348 31.3203 58.7081 32.6355 59.5566 33.7783C59.5873 33.8197 59.6208 33.8583 59.6562 33.8957C60.7314 35.0297 61.0023 37.1171 61.0023 37.7604C61.0023 38.8673 60.5099 42.49 56.3904 43.8722C56.2936 43.9047 56.1902 43.9205 56.0881 43.9206C51.9731 43.9272 47.5867 44.1952 42.667 44.2004C42.5711 44.2005 42.475 44.2139 42.3836 44.243C39.6792 45.1028 37.7618 47.5208 37.7617 50.3606C37.7615 52.5773 38.5846 55.8909 42.4006 57.045C42.4801 57.0691 42.5641 57.082 42.6471 57.0844L52.0419 57.3607M52.0419 57.3607C52.3219 55.9607 54.5836 52.8134 57.362 53.1607C59.6021 53.4407 61.0021 55.1033 61.0021 57.3607C61.0021 59.6008 58.6298 61.0008 57.362 61.0008C56.2418 61.0008 53.722 60.7208 52.0419 57.3607Z" stroke="#2A9D8F" stroke-width="2" stroke-linecap="round"/>
<path d="M48.8005 26.5601C48.8005 28.0553 47.5367 29.6889 44.8492 31.0083C42.2268 32.2956 38.5338 33.1202 34.4002 33.1202C30.2667 33.1202 26.5737 32.2956 23.9513 31.0083C21.2637 29.6889 20 28.0553 20 26.5601C20 25.0649 21.2637 23.4313 23.9513 22.112C26.5737 20.8246 30.2667 20 34.4002 20C38.5338 20 42.2268 20.8246 44.8492 22.112C47.5367 23.4313 48.8005 25.0649 48.8005 26.5601Z" stroke="#2A9D8F" stroke-width="2"/>
</svg>
