<svg width="52" height="52" viewBox="0 0 52 52" fill="none" xmlns="http://www.w3.org/2000/svg">
<circle cx="26" cy="26" r="26" fill="#56CCFF"/>
<path d="M36.8554 35.0639C35.4589 32.5233 33.2782 30.5436 30.6645 29.4437C31.9643 28.4332 32.9244 27.0244 33.4088 25.4169C33.8933 23.8093 33.8775 22.0845 33.3637 20.4868C32.8499 18.8891 31.8642 17.4994 30.5462 16.5146C29.2281 15.5299 27.6446 15 26.0199 15C24.3951 15 22.8116 15.5299 21.4936 16.5146C20.1755 17.4994 19.1898 18.8891 18.676 20.4868C18.1622 22.0845 18.1464 23.8093 18.6309 25.4169C19.1153 27.0244 20.0754 28.4332 21.3752 29.4437C18.7615 30.5436 16.5808 32.5233 15.1843 35.0639C15.0978 35.2081 15.0401 35.3689 15.0148 35.5367C14.9894 35.7045 14.9968 35.8759 15.0366 36.0406C15.0764 36.2054 15.1477 36.3602 15.2463 36.4958C15.345 36.6314 15.4689 36.7451 15.6108 36.8301C15.7527 36.915 15.9096 36.9696 16.0722 36.9904C16.2348 37.0113 16.3998 36.998 16.5574 36.9514C16.715 36.9049 16.8619 36.8259 16.9895 36.7193C17.117 36.6127 17.2226 36.4806 17.2999 36.3309C19.1456 33.024 22.405 31.0517 26.0199 31.0517C29.6347 31.0517 32.8941 33.0251 34.7398 36.3309C34.9074 36.6102 35.1731 36.811 35.4809 36.8909C35.7887 36.9707 36.1144 36.9234 36.3892 36.7588C36.6639 36.5943 36.8662 36.3255 36.9532 36.0092C37.0402 35.6929 37.0051 35.3539 36.8554 35.0639ZM20.7233 23.0275C20.7233 21.9416 21.0339 20.8801 21.6159 19.9772C22.1979 19.0743 23.0251 18.3706 23.993 17.9551C24.9608 17.5395 26.0257 17.4308 27.0532 17.6426C28.0806 17.8545 29.0243 18.3774 29.7651 19.1452C30.5058 19.9131 31.0103 20.8913 31.2146 21.9564C31.419 23.0214 31.3141 24.1253 30.9132 25.1285C30.5123 26.1317 29.8335 26.9892 28.9625 27.5925C28.0914 28.1958 27.0674 28.5178 26.0199 28.5178C24.6156 28.5161 23.2694 27.9371 22.2764 26.9078C21.2835 25.8786 20.7249 24.4831 20.7233 23.0275Z" fill="#FCFCFC"/>
</svg>
