<svg width="80" height="80" viewBox="0 0 80 80" fill="none" xmlns="http://www.w3.org/2000/svg">
<circle cx="40" cy="40" r="39" fill="#FCFCFC" stroke="#2A9D8F" stroke-width="2"/>
<path fill-rule="evenodd" clip-rule="evenodd" d="M35.7174 19.1217C34.3703 19.3968 33.4562 19.9101 32.3811 20.9951C31.716 21.6664 31.4899 21.9746 31.1737 22.6405C30.6811 23.678 30.4948 24.4839 30.4938 25.5807C30.4915 28.2466 32.1012 31.4166 35.5578 35.553C36.7322 36.9585 40.6878 40.936 40.9869 41.0122C41.1196 41.0459 41.3254 41.0488 41.4442 41.0185C41.5632 40.9883 42.2241 40.4176 42.913 39.7504L44.1656 38.5373L44.8584 39.2751C45.2394 39.6809 45.565 40.0504 45.5819 40.0962C45.6483 40.2761 48.4828 42.9021 48.7017 42.9865C48.8691 43.0511 49.0141 43.0347 49.217 42.9283C49.5949 42.73 52.8668 39.4179 53.879 38.2089C56.003 35.6721 57.3362 33.5268 58.0125 31.5574C58.2509 30.8633 58.2777 30.6561 58.2801 29.4848C58.2824 28.3707 58.2511 28.0906 58.0631 27.5385C57.6051 26.1936 56.5352 24.9381 55.3012 24.2974C54.3043 23.7798 53.7847 23.6527 52.6671 23.6527H51.7071L51.555 23.2189C51.3157 22.5364 50.7309 21.6271 50.1328 21.0073C48.4254 19.2382 46.0434 18.5844 43.8284 19.2771C42.9832 19.5413 42.6158 19.7355 41.8533 20.3211L41.2281 20.8012L40.5867 20.3073C39.1269 19.1828 37.4347 18.7708 35.7174 19.1217ZM35.7432 20.4655C34.8712 20.6799 34.018 21.1767 33.3477 21.8604C31.7235 23.5168 31.3658 25.6894 32.3144 28.1352C33.0899 30.1345 34.6288 32.4497 36.9903 35.1694C37.9824 36.3121 41.112 39.5103 41.238 39.5103C41.3619 39.5103 44.5597 36.2265 45.559 35.0731C48.6316 31.5266 50.3177 28.6086 50.6361 26.2858C50.9319 24.1279 49.7009 21.8047 47.7685 20.8742C45.7447 19.8996 43.8733 20.2186 42.1779 21.8272C41.7284 22.2538 41.3406 22.5441 41.2203 22.5441C41.0982 22.5441 40.7507 22.278 40.3418 21.8712C39.9698 21.5012 39.4251 21.0684 39.1314 20.9097C38.1333 20.3699 36.828 20.1987 35.7432 20.4655ZM51.9418 25.9904C51.9051 26.7999 51.8295 27.2296 51.5965 27.9542C50.8223 30.3619 48.9561 33.2425 46.0286 36.5491L45.1083 37.5885L45.9652 38.5315C46.9676 39.6345 48.7961 41.4383 48.9119 41.4383C49.0777 41.4383 52.7142 37.5824 53.5946 36.4731C55.3013 34.3226 56.4893 32.2773 56.8699 30.8344C57.668 27.8085 55.6302 24.9541 52.672 24.9541H51.9889L51.9418 25.9904ZM17.4751 39.1882C17.3967 39.2201 17.2577 39.3124 17.1663 39.3932C17.01 39.5314 17 40.1322 17 49.4473V59.3545L17.259 59.5611C17.5112 59.7624 17.583 59.767 19.9906 59.7369L22.4632 59.7058L23.0333 59.4358C24.1117 58.9251 24.8919 57.86 25.0343 56.7042C25.0693 56.4199 25.1143 56.1873 25.1345 56.1873C25.1546 56.1873 27.5546 57.125 30.468 58.271C33.3812 59.4171 36.1497 60.4538 36.62 60.5748C39.8147 61.397 42.9078 61.0281 45.9941 59.4571C46.8989 58.9965 60.1223 51.9029 61.9191 50.9143C62.9456 50.3494 63.2051 49.8601 62.8489 49.1611C62.6624 48.7953 61.6482 47.9679 60.8913 47.5641C59.5544 46.851 57.5832 46.5801 56.24 46.925C55.9526 46.9987 54.0952 47.6597 52.1124 48.3938C50.1297 49.1279 48.4775 49.7286 48.441 49.7286C48.4046 49.7286 48.3584 49.4141 48.3386 49.0297C48.2768 47.838 47.6378 46.8802 46.5635 46.3692L46.0262 46.1136L42.8021 46.0836L39.5781 46.0536L39.0017 45.5117C37.4204 44.0253 35.2868 43.0396 33.1203 42.7945C32.6193 42.7378 30.6093 42.6915 28.6537 42.6915H25.0979L25.0329 42.1633C24.8885 40.9903 24.0011 39.8358 22.9099 39.4014C22.4086 39.2016 22.1911 39.1835 19.9929 39.1579C18.6865 39.1426 17.5534 39.1562 17.4751 39.1882ZM18.3302 49.4324V58.4045H20.1481C21.3113 58.4045 22.107 58.3617 22.3572 58.2859C22.8594 58.1337 23.5099 57.4793 23.6431 56.9923C23.7112 56.744 23.745 54.2228 23.7453 49.3781L23.7459 42.135L23.4804 41.6195C23.2872 41.2443 23.0888 41.0246 22.7518 40.8131L22.2888 40.5225L20.3095 40.4914L18.3302 40.4603V49.4324ZM25.076 49.3778V54.7273L25.8599 55.0335C26.2909 55.2018 28.7177 56.1543 31.2526 57.1501C33.7875 58.1459 36.1579 59.0536 36.5203 59.1672C39.0303 59.9537 42.0127 59.7828 44.4648 58.7118C45.0722 58.4465 61.2393 49.8387 61.4572 49.6646C61.5374 49.6005 61.1766 49.2843 60.6637 48.9692C59.4735 48.2379 58.0087 47.9399 56.7926 48.1814C56.0865 48.3216 47.4314 51.5049 47.2144 51.7042C47.1329 51.7791 46.8108 51.9616 46.4987 52.1099L45.9312 52.3795H39.7708H33.6104L33.4287 52.1519C33.1942 51.8583 33.1976 51.514 33.4371 51.2709C33.623 51.0823 33.7541 51.0781 39.5416 51.0776C43.4125 51.0773 45.5813 51.0418 45.8186 50.9749C46.0179 50.9188 46.3437 50.7078 46.5425 50.5061C47.4345 49.601 47.1744 48.1235 46.0301 47.5962C45.6814 47.4355 45.3418 47.419 42.3335 47.4171L39.0209 47.415L38.2955 46.7033C37.0587 45.4897 35.8451 44.793 34.1188 44.3055C33.4358 44.1126 33.1263 44.0973 29.2328 44.0639L25.076 44.0283V49.3778Z" fill="#2A9D8F"/>
</svg>
