<svg width="80" height="80" viewBox="0 0 80 80" fill="none" xmlns="http://www.w3.org/2000/svg">
<circle cx="40" cy="40" r="39" fill="#FCFCFC" stroke="#2A9D8F" stroke-width="2"/>
<path fill-rule="evenodd" clip-rule="evenodd" d="M39.4073 19.1661C39.2205 19.2652 39.0377 19.4538 38.9373 19.6515C38.7809 19.9591 38.7728 20.1309 38.7728 23.1775V26.3802L33.2749 26.3807C29.9189 26.381 27.664 26.4127 27.4872 26.462C27.086 26.5738 26.8759 26.8224 25.4465 28.8786C24.0235 30.9255 23.9056 31.1556 24.0439 31.6186C24.1337 31.9193 26.4614 35.3537 26.9085 35.845C27.34 36.3194 27.1657 36.3066 33.211 36.3066H38.7728V44.9615V53.6163H34.3132C29.4873 53.6163 29.6392 53.6029 29.2076 54.0662L29.0032 54.2856L28.9799 57.216L28.9566 60.1463L29.1451 60.4294C29.5535 61.0429 28.7243 60.9993 39.9992 60.9993C51.274 60.9993 50.4448 61.0429 50.8532 60.4294L51.0417 60.1463L51.0184 57.216L50.9951 54.2856L50.7907 54.0662C50.3591 53.6029 50.511 53.6163 45.6851 53.6163H41.2255V41.2288V28.8413H46.8953H52.5651L52.8363 28.6568C53.1417 28.4489 55.807 24.691 55.9456 24.2729C56.1102 23.776 55.9757 23.5092 54.4811 21.3695C53.4051 19.8292 52.965 19.2638 52.7533 19.1499C52.4829 19.0044 52.1612 18.9971 46.0911 19.0006C39.9024 19.0041 39.7039 19.009 39.4073 19.1661ZM41.2255 23.9192V26.3802H46.4007H51.576L52.4159 25.1769C53.0432 24.2782 53.2388 23.9388 53.1883 23.8364C53.1511 23.761 52.7712 23.1961 52.344 22.5811L51.5673 21.4628L46.3964 21.4604L41.2255 21.4581V23.9192ZM28.3752 28.9849C28.1316 29.2718 26.7551 31.2894 26.7572 31.3565C26.7584 31.3945 27.136 31.9608 27.5962 32.615L28.4329 33.8045L33.6029 33.8256L38.7728 33.8468V31.344V28.8413H33.635C28.8428 28.8413 28.489 28.851 28.3752 28.9849ZM46.2748 31.5438C44.9625 31.9647 43.9762 33.1241 43.7464 34.516C43.6341 35.1966 43.7472 35.6323 44.1223 35.9627C44.5138 36.3076 44.9656 36.371 45.4292 36.1458C45.873 35.9302 46.0381 35.6884 46.1305 35.1184C46.2806 34.1928 46.7103 33.7986 47.4977 33.8642C47.907 33.8982 47.9889 33.9381 48.2695 34.2399C48.5745 34.568 48.6269 34.7347 48.5841 35.2402C48.5533 35.6022 48.3697 35.8388 47.7588 36.3034C46.6462 37.1496 46.1829 38.1028 46.1757 39.5613C46.1722 40.28 46.195 40.4272 46.3402 40.6227C46.9124 41.393 47.8989 41.4123 48.3977 40.6629C48.5438 40.4436 48.5834 40.2686 48.5838 39.8426C48.5845 39.0645 48.6952 38.7476 49.0788 38.4271C50.0944 37.5785 50.3947 37.2469 50.6892 36.649C50.9612 36.0967 50.9933 35.9608 51.0223 35.2365C51.0618 34.2498 50.8737 33.5959 50.3417 32.8708C49.424 31.6199 47.7452 31.0721 46.2748 31.5438ZM46.8993 43.8462C46.4515 44.0503 46.1852 44.4359 46.1852 44.8803C46.1852 45.8313 47.2148 46.4624 47.9913 45.9873C48.8055 45.4892 48.7707 44.3236 47.9282 43.8765C47.5043 43.6516 47.3371 43.6467 46.8993 43.8462ZM31.3332 57.3079V58.5385H39.9992H48.6651V57.3079V56.0774H39.9992H31.3332V57.3079Z" fill="#2A9D8F"/>
</svg>
