<svg width="80" height="80" viewBox="0 0 80 80" fill="none" xmlns="http://www.w3.org/2000/svg">
<circle cx="40" cy="40" r="39" fill="#FCFCFC" stroke="#2A9D8F" stroke-width="2"/>
<path fill-rule="evenodd" clip-rule="evenodd" d="M34.1338 19.2492C32.9393 19.8815 32.4562 20.7262 32.3097 22.4379C32.2521 23.1112 32.1715 23.7825 32.1305 23.9299C32.062 24.1767 31.7202 24.198 27.7619 24.2011C23.7716 24.2041 23.4189 24.2265 22.7818 24.5161C21.1156 25.2736 20.6664 26.1536 20.0468 29.873C19.3791 33.8832 19.1298 36.5815 19.0233 40.9538C18.8907 46.3963 19.3262 51.9122 20.2731 56.7851C20.7138 59.0528 21.1307 59.8477 22.2406 60.5369L22.9864 61H40.0003H57.0141L57.76 60.5369C58.8699 59.8477 59.2868 59.0528 59.7275 56.7851C60.6753 51.9076 61.1103 46.3937 60.9762 40.9538C60.8569 36.11 60.4888 32.4518 59.7056 28.3293C59.3205 26.3021 58.7043 25.2855 57.4473 24.6044C56.8692 24.2912 56.6091 24.2717 52.4017 24.2275L47.9654 24.181L47.8685 23.2488C47.8152 22.736 47.7715 22.0829 47.7715 21.7972C47.7715 21.1888 47.3408 20.2787 46.8339 19.8161C45.9369 18.9975 45.9114 18.9944 40.046 19.001C35.3745 19.0062 34.5253 19.0418 34.1338 19.2492ZM34.7038 20.5748C34.1366 20.8913 33.9065 21.3686 33.7544 22.5449C33.6749 23.1594 33.6078 23.7825 33.6052 23.9299C33.6008 24.1807 34.0051 24.1977 40.0003 24.1977H46.4001V23.0451C46.4001 22.3951 46.3056 21.6654 46.1836 21.3719C45.7781 20.3976 45.617 20.3715 40.046 20.3774C36.3315 20.3816 34.9597 20.4322 34.7038 20.5748ZM23.7517 25.7184C23.0226 25.8966 22.3841 26.4268 22.1304 27.0649C21.8432 27.7878 21.1904 31.5787 20.8853 34.2973C20.1791 40.5878 20.2502 46.48 21.1089 52.8132C21.8057 57.9528 22.1514 58.9914 23.3304 59.486C24.0878 59.8038 55.9128 59.8038 56.6702 59.486C57.4717 59.1496 57.9561 58.3733 58.22 57.0019C59.1465 52.1866 59.5385 47.9547 59.5436 42.7136C59.5483 37.9602 59.3094 34.9389 58.5758 30.4717C58.0376 27.1945 57.801 26.538 56.9715 26.0202L56.3807 25.6514L40.305 25.6266C31.4634 25.6129 24.0144 25.6542 23.7517 25.7184ZM25.4287 28.2519C24.34 28.9073 24.3056 29.0844 24.3056 34.0335V38.3907L23.8439 38.4834C22.7547 38.7022 22.367 39.8017 22.5094 42.2694C22.5712 43.3441 22.6293 43.5384 23.0069 43.9341C23.2418 44.1805 23.6302 44.4252 23.8699 44.4781L24.3056 44.5742V48.9772C24.3056 53.2913 24.3124 53.3903 24.6484 53.8859C24.837 54.1641 25.1848 54.5358 25.4214 54.7119C25.8507 55.0313 25.8831 55.0321 40.0003 55.0321C54.1175 55.0321 54.1499 55.0313 54.5792 54.7119C54.8158 54.5358 55.1635 54.1641 55.3522 53.8859C55.6882 53.3903 55.695 53.2913 55.695 48.9772V44.5742L56.1329 44.4777C56.5864 44.3776 57.055 43.9534 57.3521 43.3741C57.5356 43.0163 57.5816 40.8674 57.4259 39.9218C57.3099 39.2173 56.7714 38.6069 56.1567 38.4834L55.695 38.3907V34.0425C55.695 29.0899 55.6475 28.8559 54.5091 28.2133L53.9012 27.8703L39.9796 27.8716L26.0579 27.8732L25.4287 28.2519ZM26.2872 29.4302C25.7275 29.6382 25.6769 30.0408 25.6769 34.2872C25.6769 38.3927 25.6797 38.4289 25.9969 38.4289C26.1729 38.4289 26.5501 38.6631 26.835 38.9492L27.3531 39.4695V41.4623C27.3531 43.3705 27.3368 43.4748 26.968 43.9149C26.7562 44.1676 26.3791 44.4194 26.13 44.4743L25.6769 44.5742V48.7702C25.6769 53.9333 25.5081 53.5783 27.9626 53.5783H29.6387V41.4894V29.4005L29.2959 29.3866C27.7502 29.3235 26.5263 29.3413 26.2872 29.4302ZM31.1625 41.432V53.5783H33.6005H36.0385L36.0381 41.4512L36.0374 29.324L33.6 29.3049L31.1625 29.2857V41.432ZM37.5624 41.4512L37.5623 53.5783H40.0003H42.4383L42.4385 41.4512V29.324H40.0006H37.5626L37.5624 41.4512ZM43.9621 41.4512V53.5783H46.4001H48.8381V41.4512V29.324H46.4001H43.9621V41.4512ZM51.7713 29.3681L50.3619 29.412V41.4952V53.5783H52.038C54.4925 53.5783 54.3236 53.9333 54.3236 48.7702V44.5742L53.8706 44.4743C53.6215 44.4194 53.2444 44.1676 53.0326 43.9149C52.6638 43.4748 52.6475 43.3705 52.6475 41.4623V39.4695L53.1656 38.9492C53.4505 38.6631 53.8276 38.4289 54.0036 38.4289C54.3209 38.4289 54.3236 38.3931 54.3236 34.2549C54.3236 29.7636 54.2813 29.5044 53.5281 29.3809C53.337 29.3495 52.5465 29.3437 51.7713 29.3681ZM24.1913 39.9074C24.0569 39.9619 24.0008 40.4314 24.0008 41.5021V43.0197H24.9913H25.9817V41.5058C25.9817 40.2664 25.938 39.9751 25.7406 39.899C25.4587 39.7904 24.4669 39.7957 24.1913 39.9074ZM54.2093 39.9074C54.075 39.9619 54.0189 40.4314 54.0189 41.5021V43.0197H55.0093H55.9998V41.5058C55.9998 40.2664 55.956 39.9751 55.7587 39.899C55.4768 39.7904 54.485 39.7957 54.2093 39.9074Z" fill="#2A9D8F"/>
</svg>
