<svg width="40" height="40" viewBox="0 0 40 40" fill="none" xmlns="http://www.w3.org/2000/svg">
<circle cx="20" cy="20" r="20" fill="#2D2D2D"/>
<path fill-rule="evenodd" clip-rule="evenodd" d="M14.0372 12.6861C15.0357 11.6396 16.6798 11.8256 17.5159 13.0035L18.5513 14.4599C19.2322 15.4181 19.1715 16.7569 18.3634 17.6036L18.1681 17.8094C18.1461 17.8959 18.1438 17.9866 18.1615 18.0741C18.2132 18.4269 18.493 19.1742 19.6646 20.4023C20.8362 21.6303 21.55 21.9244 21.8896 21.9797C21.9751 21.9989 22.0637 21.9962 22.1481 21.972L22.4828 21.6208C23.2015 20.8684 24.3042 20.7274 25.1935 21.2368L26.7606 22.1363C28.1037 22.9043 28.4425 24.8277 27.3431 25.9805L26.1773 27.2017C25.8097 27.5866 25.3158 27.9074 24.7136 27.9671C23.2286 28.1133 19.7688 27.9264 16.1318 24.1151C12.7376 20.5571 12.0862 17.454 12.0033 15.9249C11.9623 15.1518 12.3085 14.4979 12.7499 14.0361L14.0372 12.6861ZM16.5313 13.781C16.1154 13.1955 15.3409 13.1488 14.9044 13.6063L13.6163 14.9554C13.3455 15.2391 13.2159 15.5522 13.2323 15.8514C13.298 17.0665 13.823 19.8661 16.9998 23.1957C20.3324 26.688 23.4099 26.7926 24.5995 26.675C24.8424 26.6517 25.0836 26.5185 25.3092 26.2824L26.4743 25.0603C26.9485 24.5639 26.8443 23.6593 26.1732 23.2753L24.6061 22.3767C24.1729 22.1294 23.6659 22.2107 23.3508 22.541L22.9775 22.9328L22.5427 22.4727C22.9775 22.9328 22.9767 22.9337 22.9759 22.9337L22.9751 22.9354L22.9726 22.938L22.9669 22.9432L22.9546 22.9553C22.9197 22.9889 22.8824 23.0195 22.843 23.047C22.7773 23.0928 22.6904 23.1438 22.5813 23.1862C22.3597 23.2736 22.066 23.3203 21.7034 23.2615C20.9921 23.1464 20.0494 22.6353 18.7966 21.3225C17.5446 20.0096 17.0556 19.022 16.9456 18.273C16.889 17.8907 16.9342 17.5811 17.0178 17.3476C17.0643 17.2164 17.1302 17.0938 17.2131 16.9844L17.2394 16.9541L17.2509 16.9411L17.2558 16.9359L17.2582 16.9334L17.2599 16.9316L17.4962 16.6843C17.8473 16.315 17.8965 15.7035 17.5659 15.2374L16.5313 13.781Z" fill="white"/>
</svg>
