<svg width="40" height="40" viewBox="0 0 40 40" fill="none" xmlns="http://www.w3.org/2000/svg">
<circle cx="20" cy="20" r="20" fill="#2D2D2D"/>
<path d="M19.9989 21.8294C19.2797 21.8294 18.5767 21.6199 17.9787 21.2275C17.3807 20.8351 16.9146 20.2773 16.6394 19.6247C16.3641 18.9721 16.2921 18.254 16.4324 17.5612C16.5727 16.8684 16.9191 16.232 17.4276 15.7326C17.9362 15.2331 18.5841 14.893 19.2895 14.7551C19.9949 14.6173 20.726 14.6881 21.3905 14.9584C22.0549 15.2287 22.6229 15.6865 23.0224 16.2738C23.422 16.8611 23.6353 17.5516 23.6353 18.258C23.6341 19.2048 23.2506 20.1126 22.5689 20.7821C21.8872 21.4516 20.963 21.8282 19.9989 21.8294ZM19.9989 16.1151C19.5674 16.1151 19.1456 16.2408 18.7868 16.4762C18.428 16.7117 18.1483 17.0464 17.9832 17.4379C17.818 17.8295 17.7748 18.2603 17.859 18.676C17.9432 19.0917 18.151 19.4735 18.4561 19.7732C18.7613 20.0729 19.15 20.277 19.5733 20.3596C19.9965 20.4423 20.4352 20.3999 20.8339 20.2377C21.2325 20.0755 21.5733 19.8009 21.813 19.4485C22.0528 19.0961 22.1807 18.6818 22.1807 18.258C22.1801 17.6898 21.9501 17.1451 21.541 16.7434C21.132 16.3416 20.5774 16.1157 19.9989 16.1151Z" fill="white"/>
<path d="M20 30.4004L13.8647 23.294C13.7795 23.1873 13.6951 23.0799 13.6116 22.9718C12.5636 21.6159 11.9975 19.9598 12 18.2575C12 16.1737 12.8429 14.1752 14.3432 12.7017C15.8434 11.2282 17.8783 10.4004 20 10.4004C22.1217 10.4004 24.1566 11.2282 25.6568 12.7017C27.1571 14.1752 28 16.1737 28 18.2575C28.0025 19.9591 27.4366 21.6144 26.3891 22.9697L26.3884 22.9718C26.3884 22.9718 26.1702 23.2532 26.1374 23.2911L20 30.4004ZM14.7731 22.1111C14.7731 22.1111 14.9426 22.3311 14.9811 22.3782L20 28.1918L25.0254 22.3704C25.0574 22.3311 25.2276 22.1097 25.2284 22.109C26.0845 21.0012 26.5471 19.6483 26.5454 18.2575C26.5454 16.5526 25.8558 14.9174 24.6283 13.7118C23.4008 12.5063 21.736 11.829 20 11.829C18.264 11.829 16.5992 12.5063 15.3717 13.7118C14.1442 14.9174 13.4546 16.5526 13.4546 18.2575C13.453 19.6491 13.9162 21.0028 14.7731 22.1111Z" fill="white"/>
</svg>
