<svg width="20" height="16" viewBox="0 0 20 16" fill="none" xmlns="http://www.w3.org/2000/svg">
<path d="M2.1875 0H17.8125C19.02 0 20 1.04533 20 2.33333V13.6667C20 14.2855 19.7695 14.879 19.3593 15.3166C18.9491 15.7542 18.3927 16 17.8125 16H2.1875C1.60734 16 1.05094 15.7542 0.640704 15.3166C0.230468 14.879 0 14.2855 0 13.6667L0 2.33333C0 1.04533 0.98 0 2.1875 0ZM1.875 13.668C1.875 13.852 2.015 14.0013 2.1875 14.0013H17.8125C17.8954 14.0013 17.9749 13.9662 18.0335 13.9037C18.0921 13.8412 18.125 13.7564 18.125 13.668V5.07867L10.475 9.86267C10.331 9.95293 10.167 10.0005 10 10.0005C9.83298 10.0005 9.66899 9.95293 9.525 9.86267L1.875 5.07867V13.668ZM18.125 2.76V2.33333C18.125 2.24493 18.0921 2.16014 18.0335 2.09763C17.9749 2.03512 17.8954 2 17.8125 2H2.1875C2.10462 2 2.02513 2.03512 1.96653 2.09763C1.90792 2.16014 1.875 2.24493 1.875 2.33333V2.76L10 7.84L18.125 2.76Z" fill="#02AFB0"/>
</svg>
