<svg width="28" height="30" viewBox="0 0 28 30" fill="none" xmlns="http://www.w3.org/2000/svg">
<path d="M17.42 8.70283e-08C18.0496 0.00016329 18.6633 0.198428 19.174 0.566712C19.6847 0.934995 20.0665 1.45463 20.2655 2.052L21.08 4.5H26C26.3978 4.5 26.7794 4.65804 27.0607 4.93934C27.342 5.22064 27.5 5.60218 27.5 6C27.5 6.39782 27.342 6.77936 27.0607 7.06066C26.7794 7.34196 26.3978 7.5 26 7.5L25.9955 7.6065L24.695 25.821C24.6138 26.9559 24.1058 28.018 23.2731 28.7933C22.4403 29.5687 21.3448 29.9999 20.207 30H7.793C6.65519 29.9999 5.55966 29.5687 4.72695 28.7933C3.89424 28.018 3.38616 26.9559 3.305 25.821L2.0045 7.605C2.00179 7.57006 2.00029 7.53504 2 7.5C1.60218 7.5 1.22064 7.34196 0.93934 7.06066C0.658035 6.77936 0.5 6.39782 0.5 6C0.5 5.60218 0.658035 5.22064 0.93934 4.93934C1.22064 4.65804 1.60218 4.5 2 4.5H6.92L7.7345 2.052C7.93355 1.45438 8.31565 0.934578 8.82665 0.566273C9.33764 0.197967 9.95161 -0.000151592 10.5815 8.70283e-08H17.42ZM22.9955 7.5H5.0045L6.2975 25.6065C6.32443 25.9848 6.49366 26.3389 6.77114 26.5974C7.04862 26.856 7.41373 26.9998 7.793 27H20.207C20.5863 26.9998 20.9514 26.856 21.2289 26.5974C21.5063 26.3389 21.6756 25.9848 21.7025 25.6065L22.9955 7.5ZM11 12C11.3674 12 11.722 12.1349 11.9966 12.3791C12.2711 12.6232 12.4465 12.9596 12.4895 13.3245L12.5 13.5V21C12.4996 21.3823 12.3532 21.75 12.0907 22.0281C11.8283 22.3061 11.4696 22.4734 11.0879 22.4958C10.7062 22.5182 10.3304 22.394 10.0373 22.1486C9.74407 21.9032 9.55566 21.5551 9.5105 21.1755L9.5 21V13.5C9.5 13.1022 9.65804 12.7206 9.93934 12.4393C10.2206 12.158 10.6022 12 11 12ZM17 12C17.3978 12 17.7794 12.158 18.0607 12.4393C18.342 12.7206 18.5 13.1022 18.5 13.5V21C18.5 21.3978 18.342 21.7794 18.0607 22.0607C17.7794 22.342 17.3978 22.5 17 22.5C16.6022 22.5 16.2206 22.342 15.9393 22.0607C15.658 21.7794 15.5 21.3978 15.5 21V13.5C15.5 13.1022 15.658 12.7206 15.9393 12.4393C16.2206 12.158 16.6022 12 17 12ZM17.42 3H10.58L10.0805 4.5H17.9195L17.42 3Z" fill="#FF6363"/>
</svg>
