<svg width="63" height="63" viewBox="0 0 63 63" fill="none" xmlns="http://www.w3.org/2000/svg">
<g filter="url(#filter0_d_2_1526)">
<path d="M31.5 10C19.6223 10 10 19.6237 10 31.5C10 43.3763 19.6237 53 31.5 53C43.3777 53 53 43.3763 53 31.5C53 19.6237 43.3763 10 31.5 10ZM42.06 24.7296L38.5312 41.3581C38.2704 42.5371 37.5685 42.8229 36.5893 42.268L31.2143 38.3065L28.6218 40.8033C28.336 41.089 28.0933 41.3317 27.5385 41.3317L27.9199 35.861L37.8806 26.8615C38.3148 26.4801 37.7849 26.2637 37.2121 26.6452L24.9016 34.3949L19.5959 32.7387C18.4433 32.3753 18.4169 31.586 19.8387 31.0312L40.5675 23.0373C41.5301 22.6905 42.3707 23.2717 42.0586 24.7282L42.06 24.7296Z" fill="white"/>
</g>
<defs>
<filter id="filter0_d_2_1526" x="0" y="0" width="63" height="63" filterUnits="userSpaceOnUse" color-interpolation-filters="sRGB">
<feFlood flood-opacity="0" result="BackgroundImageFix"/>
<feColorMatrix in="SourceAlpha" type="matrix" values="0 0 0 0 0 0 0 0 0 0 0 0 0 0 0 0 0 0 127 0" result="hardAlpha"/>
<feOffset/>
<feGaussianBlur stdDeviation="5"/>
<feComposite in2="hardAlpha" operator="out"/>
<feColorMatrix type="matrix" values="0 0 0 0 1 0 0 0 0 1 0 0 0 0 1 0 0 0 0.5 0"/>
<feBlend mode="normal" in2="BackgroundImageFix" result="effect1_dropShadow_2_1526"/>
<feBlend mode="normal" in="SourceGraphic" in2="effect1_dropShadow_2_1526" result="shape"/>
</filter>
</defs>
</svg>
