<svg width="55" height="55" viewBox="0 0 55 55" fill="none" xmlns="http://www.w3.org/2000/svg">
<path d="M27.4995 0C12.3121 0 0 12.3124 0 27.4995C0 42.6862 12.3121 55 27.4995 55C42.687 55 55 42.6867 55 27.4995C54.9995 12.3124 42.687 0 27.4995 0ZM36.8911 17.5908C36.8911 17.8532 36.6786 18.0663 36.4156 18.0663H29.7211V21.6643H36.4151C36.6781 21.6643 36.8906 21.8773 36.8906 22.1398V28.8333C36.8906 29.0962 36.6781 29.3088 36.4151 29.3088H30.1966V43.9976C30.1966 44.2606 29.984 44.4731 29.7211 44.4731H23.3945C23.1316 44.4731 22.919 44.2606 22.919 43.9976V29.3092H18.5839C18.321 29.3092 18.1084 29.0967 18.1084 28.8337V22.1403C18.1084 21.8778 18.321 21.6648 18.5839 21.6648H22.919V18.9507C22.919 18.9117 22.9238 18.8741 22.9324 18.838C22.9362 14.9718 23.7631 10.5488 30.0972 10.5288C30.111 10.5278 30.1257 10.5269 30.14 10.5269H36.4151C36.6781 10.5269 36.8906 10.7399 36.8906 11.0024V17.5908H36.8911Z" fill="white"/>
</svg>
