<svg width="106" height="106" viewBox="0 0 106 106" fill="none" xmlns="http://www.w3.org/2000/svg">
<circle cx="53" cy="53" r="52" fill="#FCFCFC" stroke="#2A9D8F" stroke-width="2"/>
<path d="M53.5649 81H25.377V63.973C31.3904 61.7027 35.9004 62.8378 37.7796 59.4324C39.1084 57.0244 44.0193 43.2973 46.7998 39.3784C48.679 36.7297 49.8065 35.5946 51.6857 32.9459C52.287 28.4054 55.9452 25.7568 57.6991 25L59.2025 33.7027C60.9564 34.2072 64.6897 35.7459 65.5917 37.8649C66.7192 40.5135 67.0951 41.2703 68.9743 42.7838C70.8535 44.2973 81.0011 46.9459 81.0011 47.7027C81.0011 49.2162 79.4978 51.4865 77.2427 52.2432C74.9877 53.3784 76.1152 54.1351 72.3568 56.027C70.8535 56.7838 70.8188 55.7736 64.4642 56.7838C57.3233 57.9189 57.3233 73.4324 53.5649 81Z" stroke="#2A9D8F" stroke-width="2" stroke-linecap="round"/>
<rect x="0.367355" y="1.36993" width="28.8709" height="5.55491" rx="2.77746" transform="matrix(0.864661 0.502356 -0.497306 0.867575 36.0669 52.2859)" fill="#FCFCFC" stroke="#2A9D8F" stroke-width="2"/>
<path d="M33.6443 55.6478L25 49.5938" stroke="#2A9D8F" stroke-width="2" stroke-linecap="round"/>
<path d="M32.1406 70.2697H33.1406V69.2697V67.6211H36.4024V69.2697V70.2697H37.4024H39.0333V73.567H37.4024H36.4024V74.567V76.2157H33.1406V74.567V73.567H32.1406H30.5098V70.2697H32.1406Z" fill="#2A9D8F" stroke="#2A9D8F" stroke-width="2" stroke-linecap="round"/>
<rect x="59.2012" y="42.0273" width="2.25503" height="3.02703" rx="1.12752" fill="#2A9D8F"/>
</svg>
