<svg width="106" height="106" viewBox="0 0 106 106" fill="none" xmlns="http://www.w3.org/2000/svg">
<circle cx="53" cy="53" r="52" fill="#FCFCFC" stroke="#2A9D8F" stroke-width="2"/>
<path fill-rule="evenodd" clip-rule="evenodd" d="M45.1784 25.3323C43.5858 26.1753 42.9415 27.3016 42.7463 29.5839C42.6695 30.4816 42.562 31.3767 42.5074 31.5732C42.4159 31.9023 41.9602 31.9307 36.6825 31.9347C31.3622 31.9388 30.8918 31.9686 30.0424 32.3548C27.8208 33.3648 27.2218 34.5382 26.3957 39.4974C25.5055 44.8443 25.1731 48.442 25.0311 54.2718C24.8543 61.5284 25.435 68.8829 26.6974 75.3801C27.285 78.4037 27.8409 79.4636 29.3207 80.3826L30.3153 81H53.0004H75.6855L76.68 80.3826C78.1599 79.4636 78.7158 78.4037 79.3033 75.3801C80.567 68.8768 81.1471 61.5249 80.9683 54.2718C80.8092 47.8133 80.3184 42.9357 79.2741 37.4391C78.7607 34.7361 77.939 33.3807 76.2631 32.4726C75.4923 32.0549 75.1455 32.029 69.5356 31.97L63.6206 31.908L63.4914 30.665C63.4203 29.9813 63.3619 29.1105 63.3619 28.7296C63.3619 27.9184 62.7878 26.705 62.1119 26.0882C60.9158 24.9966 60.8819 24.9925 53.0613 25.0013C46.8326 25.0082 45.7004 25.0558 45.1784 25.3323ZM45.9385 27.0998C45.1821 27.5217 44.8753 28.1581 44.6725 29.7265C44.5665 30.5459 44.4771 31.3767 44.4736 31.5732C44.4677 31.9076 45.0067 31.9302 53.0004 31.9302H61.5334V30.3935C61.5334 29.5267 61.4075 28.5539 61.2447 28.1626C60.7041 26.8635 60.4894 26.8286 53.0613 26.8366C48.1087 26.8421 46.2796 26.9096 45.9385 27.0998ZM31.3356 33.9579C30.3634 34.1954 29.5121 34.9024 29.1739 35.7532C28.7909 36.717 27.9205 41.7715 27.5138 45.3964C26.5721 53.7837 26.667 61.64 27.8118 70.0843C28.7409 76.9371 29.2019 78.3219 30.7738 78.9813C31.7838 79.4051 74.217 79.4051 75.227 78.9813C76.2956 78.5328 76.9415 77.4978 77.2934 75.6692C78.5286 69.2488 79.0514 63.6063 79.0581 56.6181C79.0644 50.2803 78.7458 46.2519 77.7678 40.2956C77.0502 35.926 76.7347 35.0507 75.6286 34.3603L74.8409 33.8686L53.4067 33.8355C41.6179 33.8171 31.6858 33.8722 31.3356 33.9579ZM33.5716 37.3359C32.12 38.2097 32.0741 38.4458 32.0741 45.0446V50.8542L31.4585 50.9779C30.0062 51.2696 29.4894 52.7356 29.6791 56.0258C29.7616 57.4588 29.839 57.7179 30.3425 58.2455C30.6558 58.574 31.1736 58.9002 31.4932 58.9708L32.0741 59.099V64.9696C32.0741 70.7217 32.0832 70.8537 32.5312 71.5145C32.7827 71.8855 33.2464 72.3811 33.5619 72.6159C34.1342 73.0417 34.1775 73.0427 53.0004 73.0427C71.8233 73.0427 71.8666 73.0417 72.4389 72.6159C72.7544 72.3811 73.218 71.8855 73.4696 71.5145C73.9175 70.8537 73.9267 70.7217 73.9267 64.9696V59.099L74.5106 58.9702C75.1152 58.8368 75.74 58.2712 76.1361 57.4987C76.3807 57.0217 76.4421 54.1565 76.2345 52.8958C76.0799 51.9564 75.3619 51.1425 74.5423 50.9779L73.9267 50.8542V45.0567C73.9267 38.4532 73.8633 38.1412 72.3454 37.2845L71.535 36.827L52.9728 36.8289L34.4105 36.8309L33.5716 37.3359ZM34.7163 38.9069C33.97 39.1842 33.9026 39.721 33.9026 45.3829C33.9026 50.8569 33.9062 50.9052 34.3292 50.9052C34.5639 50.9052 35.0667 51.2174 35.4467 51.599L36.1374 52.2927V54.9498C36.1374 57.4941 36.1157 57.633 35.624 58.2198C35.3416 58.5569 34.8388 58.8925 34.5066 58.9657L33.9026 59.099V64.6935C33.9026 71.5778 33.6775 71.1044 36.9501 71.1044H39.185V54.9859V38.8673L38.7278 38.8488C36.6669 38.7647 35.0351 38.7884 34.7163 38.9069ZM41.2166 54.9094V71.1044H44.4673H47.718L47.7174 54.9349L47.7166 38.7653L44.4667 38.7398L41.2166 38.7143V54.9094ZM49.7499 54.9349L49.7497 71.1044H53.0004H56.2511L56.2513 54.9349V38.7653H53.0008H49.7501L49.7499 54.9349ZM58.2827 54.9349V71.1044H61.5334H64.7841V54.9349V38.7653H61.5334H58.2827V54.9349ZM68.6951 38.8241L66.8158 38.8826V54.9936V71.1044H69.0507C72.3233 71.1044 72.0982 71.5778 72.0982 64.6935V59.099L71.4942 58.9657C71.162 58.8925 70.6591 58.5569 70.3767 58.2198C69.8851 57.633 69.8633 57.4941 69.8633 54.9498V52.2927L70.5541 51.599C70.934 51.2174 71.4369 50.9052 71.6715 50.9052C72.0945 50.9052 72.0982 50.8575 72.0982 45.3399C72.0982 39.3515 72.0417 39.0059 71.0374 38.8412C70.7827 38.7994 69.7286 38.7916 68.6951 38.8241ZM31.9217 52.8766C31.7425 52.9492 31.6677 53.5752 31.6677 55.0028V57.0262H32.9883H34.3089V55.0077C34.3089 53.3553 34.2506 52.9668 33.9875 52.8654C33.6117 52.7205 32.2892 52.7277 31.9217 52.8766ZM71.9458 52.8766C71.7666 52.9492 71.6918 53.5752 71.6918 55.0028V57.0262H73.0124H74.333V55.0077C74.333 53.3553 74.2747 52.9668 74.0116 52.8654C73.6357 52.7205 72.3133 52.7277 71.9458 52.8766Z" fill="#2A9D8F"/>
</svg>
