<svg width="106" height="106" viewBox="0 0 106 106" fill="none" xmlns="http://www.w3.org/2000/svg">
<circle cx="53" cy="53" r="52" fill="#FCFCFC" stroke="#2A9D8F" stroke-width="2"/>
<path d="M28.7344 38.8111C34.0855 35.5755 48.3717 31.0457 62.7077 38.8111" stroke="#2A9D8F" stroke-width="2" stroke-linecap="round"/>
<path d="M25.7461 36.1992V44.9017C25.7461 45.0706 25.7875 45.2365 25.873 45.3822C32.0545 55.9264 58.6665 56.6436 65.1935 45.3824C65.2778 45.237 65.3194 45.0711 65.3194 44.903V36.1992" stroke="#2A9D8F" stroke-width="2" stroke-linecap="round"/>
<path d="M65.3226 41.4258H73.536C76.142 41.4258 77.9601 43.1953 79.0904 44.7238C79.121 44.7652 79.1544 44.8038 79.19 44.8409C80.6383 46.3485 81.0026 49.1512 81.0026 50.0124C81.0026 51.4926 80.3421 56.3472 74.8044 58.1777C74.7074 58.2098 74.6039 58.2258 74.5017 58.2259C68.9869 58.2325 63.1072 58.5938 56.5076 58.5991C56.4117 58.5991 56.3156 58.6126 56.224 58.6412C52.5939 59.7748 50.0158 63.01 50.0156 66.8124C50.0153 69.7758 51.1185 74.2092 56.241 75.7369C56.3206 75.7607 56.4046 75.7737 56.4877 75.7761L69.0556 76.1458M69.0556 76.1458C69.429 74.2791 72.4445 70.0827 76.149 70.5458C79.1356 70.9191 81.0023 73.1359 81.0023 76.1458C81.0023 79.1324 77.8393 80.9991 76.149 80.9991C74.6553 80.9991 71.2956 80.6258 69.0556 76.1458Z" stroke="#2A9D8F" stroke-width="2" stroke-linecap="round"/>
<path d="M65.0667 35.08C65.0667 37.271 63.2284 39.5346 59.6119 41.31C56.0606 43.0533 51.0844 44.16 45.5333 44.16C39.9823 44.16 35.0061 43.0533 31.4547 41.31C27.8383 39.5346 26 37.271 26 35.08C26 32.889 27.8383 30.6254 31.4547 28.85C35.0061 27.1067 39.9823 26 45.5333 26C51.0844 26 56.0606 27.1067 59.6119 28.85C63.2284 30.6254 65.0667 32.889 65.0667 35.08Z" stroke="#2A9D8F" stroke-width="2"/>
</svg>
