<svg width="106" height="106" viewBox="0 0 106 106" fill="none" xmlns="http://www.w3.org/2000/svg">
<circle cx="53" cy="53" r="52" fill="#FCFCFC" stroke="#2A9D8F" stroke-width="2"/>
<path d="M50.6309 66.6486H51.6309V65.6486V64H54.8926V65.6486V66.6486H55.8926H57.5235V69.9459H55.8926H54.8926V70.9459V72.5946H51.6309V70.9459V69.9459H50.6309H49V66.6486H50.6309Z" fill="#2A9D8F" stroke="#2A9D8F" stroke-width="2" stroke-linecap="round"/>
<path d="M53.0178 78C49.5178 78 46.5178 80.5 41.0178 80.0001C35.5178 78.5 34.6663 75.5132 34.4918 72C33.9951 62.0001 40.498 64.9632 43.0178 62.0001C45.9962 58.5 47.5178 53 52.5178 53C59.037 53 60.1428 60.4312 62.4962 62.0001C65.4962 64 71.5178 64 71.0178 72C70.6691 77.5793 67.5052 79.419 64.0182 80.0001C61.0178 80.5 55.5673 78 53.0178 78Z" stroke="#2A9D8F" stroke-width="2"/>
<path d="M70.5185 38.499C70.1275 41.4435 68.8761 43.9517 67.2157 45.6342C65.5557 47.3162 63.5376 48.1339 61.5457 47.8694C59.5538 47.6049 57.819 46.2889 56.6555 44.232C55.4917 42.1744 54.9382 39.4266 55.3292 36.4822C55.7202 33.5377 56.9716 31.0295 58.632 29.347C60.2919 27.665 62.3101 26.8474 64.302 27.1118C66.2938 27.3763 68.0287 28.6923 69.1922 30.7492C70.356 32.8068 70.9094 35.5546 70.5185 38.499Z" stroke="#2A9D8F" stroke-width="2"/>
<path d="M82.574 55.2826C81.0588 60.5435 76.673 63.4309 73.0951 62.4004C69.5172 61.3699 67.339 56.592 68.8542 51.3312C70.3694 46.0703 74.7552 43.1829 78.3331 44.2134C81.9111 45.2439 84.0892 50.0218 82.574 55.2826Z" stroke="#2A9D8F" stroke-width="2"/>
<path d="M23.8557 54.2826C25.3709 59.5435 29.7567 62.4309 33.3346 61.4004C36.9125 60.3699 39.0907 55.592 37.5755 50.3312C36.0603 45.0703 31.6745 42.1829 28.0966 43.2134C24.5186 44.2439 22.3405 49.0218 23.8557 54.2826Z" stroke="#2A9D8F" stroke-width="2"/>
<path d="M35.5088 38.7023C36.3073 44.7159 40.6849 48.6573 44.886 48.0995C49.0872 47.5416 52.2845 42.5944 51.486 36.5808C50.6875 30.5673 46.3099 26.6258 42.1088 27.1837C37.9076 27.7415 34.7103 32.6888 35.5088 38.7023Z" stroke="#2A9D8F" stroke-width="2"/>
</svg>
