<svg width="106" height="106" viewBox="0 0 106 106" fill="none" xmlns="http://www.w3.org/2000/svg">
<circle cx="53" cy="53" r="52" fill="#FCFCFC" stroke="#2A9D8F" stroke-width="2"/>
<path d="M67.698 56.2829L70.5484 73.8591L68.8771 80.2529C68.762 80.693 68.3645 81 67.9096 81H52.1431C51.7557 81 51.4032 80.7763 51.2382 80.4258L48.2941 74.1686C48.1997 73.968 48.1746 73.7416 48.2229 73.5252L52.0806 56.2253C52.1826 55.7681 52.5882 55.4429 53.0567 55.4429H53.7484C54.1218 53.4385 55.9138 49.5047 60.0951 49.8054C65.3218 50.1812 65.7754 55.4429 65.9219 55.4429H66.7109C67.2014 55.4429 67.6195 55.7987 67.698 56.2829Z" fill="#FCFCFC"/>
<path d="M70.5484 73.8591L67.698 56.2829C67.6195 55.7987 67.2014 55.4429 66.7109 55.4429H65.9219M70.5484 73.8591L68.8771 80.2529C68.762 80.693 68.3645 81 67.9096 81H52.1431C51.7557 81 51.4032 80.7763 51.2382 80.4258L48.2941 74.1686C48.1997 73.9679 48.1746 73.7416 48.2229 73.5252L52.0806 56.2253C52.1826 55.7681 52.5882 55.4429 53.0567 55.4429H53.7484M70.5484 73.8591H56.7351M53.7484 55.4429C54.1218 53.4385 55.9138 49.5047 60.0951 49.8054C65.3218 50.1812 65.7754 55.4429 65.9219 55.4429M53.7484 55.4429H65.9219" stroke="#2A9D8F" stroke-width="2" stroke-linecap="round"/>
<path d="M71.5579 46.0406L70.3337 37.4139C70.2483 36.8118 70.7156 36.2734 71.3238 36.2734H79.966C80.5308 36.2734 80.9836 36.7409 80.9655 37.3055L80.6604 46.8272C80.6415 47.416 80.1204 47.8609 79.536 47.7874L72.4231 46.8923C71.9756 46.836 71.6212 46.4871 71.5579 46.0406Z" fill="#FCFCFC" stroke="#2A9D8F" stroke-width="2" stroke-linecap="round"/>
<path d="M68.6798 44.1675C68.6798 44.3442 69.2815 44.616 69.9544 44.8611C70.6012 45.0965 71.2534 44.5769 71.2154 43.8897L70.953 39.1477C70.932 38.7691 70.6988 38.4349 70.3507 38.2847L68.6459 37.5492C68.4263 37.4545 68.18 37.4415 67.9517 37.513C64.2369 38.6754 57.3106 40.8696 56.7321 41.1607C55.9855 41.5366 54.1194 46.4225 53.7461 48.3017C53.4777 49.6527 54.9981 49.8908 56.0316 49.8343C56.2453 49.8226 56.4554 49.7134 56.6105 49.566C70.178 36.6702 58.3191 51.5981 59.3465 51.6843C62.754 51.9701 65.5316 50.2402 66.6525 49.2078C66.7611 49.1078 66.8385 48.982 66.888 48.8429C67.5297 47.0398 68.6798 43.8784 68.6798 44.1675Z" fill="#FCFCFC" stroke="#2A9D8F" stroke-width="2" stroke-linecap="round"/>
<path d="M25 40.3674V28.6328C25 28.0805 25.4477 27.6328 26 27.6328H31.0933C31.6456 27.6328 32.0933 28.0805 32.0933 28.6328V39.5577C32.0933 40.0494 31.7359 40.4682 31.2503 40.5453L26.157 41.355C25.5497 41.4515 25 40.9823 25 40.3674Z" fill="#FCFCFC" stroke="#2A9D8F" stroke-width="2" stroke-linecap="round"/>
<path d="M59.7191 26.8794C59.7191 27.7749 53.0959 28.7445 49.7125 29.1262C49.6625 29.1318 49.6147 29.141 49.5661 29.154L46.1635 30.0675C45.3344 30.29 45.1923 31.3194 45.9568 31.7099C48.1444 32.8272 51.581 34.3462 54.1191 34.772C57.2023 35.2893 61.0591 33.804 63.2652 32.661C63.7794 32.3946 63.9171 31.7386 63.5791 31.2684C62.007 29.0817 59.7191 26.0899 59.7191 26.8794Z" fill="#FCFCFC" stroke="#2A9D8F" stroke-width="2" stroke-linecap="round"/>
<path d="M42.1615 40.6265L33.0893 36.9056C32.7139 36.7516 32.4688 36.3861 32.4688 35.9804V30.1375C32.4688 29.7539 32.6882 29.4041 33.0337 29.2371L41.3699 25.2089C41.6431 25.0768 41.9608 25.0753 42.234 25.2075C44.6969 26.3993 48.8954 28.5676 48.8954 29.1342C48.8954 29.701 47.3479 30.0897 46.4406 30.2374C46.3356 30.2546 46.2179 30.2504 46.1131 30.2319C34.6525 28.2166 46.5825 32.4713 52.5916 34.6719C53.4311 34.9793 53.4502 36.1294 52.628 36.4806L42.9337 40.6209C42.6874 40.7261 42.4092 40.7281 42.1615 40.6265Z" fill="#FCFCFC" stroke="#2A9D8F" stroke-width="2" stroke-linecap="round"/>
</svg>
