<svg width="108" height="100" viewBox="0 0 108 100" fill="none" xmlns="http://www.w3.org/2000/svg">
<path d="M71.9854 19.0216C67.5747 14.5891 61.9542 11.5707 55.8351 10.3483C49.7161 9.12589 43.3736 9.75443 37.6103 12.1544C31.847 14.5543 26.922 18.6178 23.4584 23.8306C19.9948 29.0433 18.1484 35.1711 18.1528 41.4384L18.1577 46.3116H8.45546V41.4384C8.45293 34.8324 10.0232 28.3215 13.0353 22.4492C16.0474 16.5769 20.414 11.5135 25.7705 7.68144C31.1271 3.8494 37.3183 1.35993 43.8276 0.420756C50.3368 -0.518414 56.9753 0.119966 63.1889 2.28262C69.4026 4.44528 75.0112 8.06948 79.5468 12.8528C84.0824 17.6361 87.4134 23.4398 89.2618 29.7795C91.1101 36.1192 91.4223 42.8111 90.1723 49.2966C88.9222 55.7822 86.1461 61.8734 82.0757 67.0618L108 93.1093L101.141 100L75.2163 73.9526C67.9453 79.7196 58.9491 82.8516 49.6849 82.8414H44.8338V73.0949H49.6849C55.9211 73.0945 62.0172 71.2366 67.2023 67.7559C72.3874 64.2753 76.4286 59.3283 78.8151 53.5405C81.2015 47.7527 81.8259 41.384 80.6094 35.2398C79.3929 29.0955 76.3901 23.4515 71.9806 19.0216M6.85945 54.8544L20.5784 68.6408L34.3021 54.8544L41.1616 61.75L27.4427 75.5315L41.1616 89.313L34.3021 96.2086L20.5784 82.4223L6.85945 96.2086L0 89.313L13.7189 75.5315L0 61.75L6.85945 54.8544Z" fill="white"/>
</svg>
