<svg width="82" height="68" viewBox="0 0 82 68" fill="none" xmlns="http://www.w3.org/2000/svg">
<circle cx="41" cy="34" r="26.5" stroke="#2A9D8F" stroke-width="15"/>
<rect y="23" width="82" height="22" rx="11" fill="#2A9D8F"/>
<path d="M23.28 39.244C21.6 39.244 20.178 39.028 19.014 38.596C17.862 38.164 16.986 37.534 16.386 36.706C15.798 35.866 15.504 34.852 15.504 33.664C15.504 32.464 15.798 31.45 16.386 30.622C16.986 29.782 17.868 29.146 19.032 28.714C20.196 28.282 21.618 28.066 23.298 28.066C23.322 28.066 23.4 28.066 23.532 28.066C23.676 28.066 23.82 28.066 23.964 28.066C24.108 28.066 24.186 28.066 24.198 28.066C25.866 28.066 27.264 28.288 28.392 28.732C29.532 29.164 30.396 29.8 30.984 30.64C31.572 31.468 31.866 32.476 31.866 33.664C31.866 34.84 31.578 35.848 31.002 36.688C30.438 37.516 29.598 38.152 28.482 38.596C27.366 39.028 25.992 39.244 24.36 39.244C24.336 39.244 24.24 39.244 24.072 39.244C23.904 39.244 23.742 39.244 23.586 39.244C23.43 39.244 23.328 39.244 23.28 39.244ZM23.604 36.508C23.64 36.508 23.694 36.508 23.766 36.508C23.85 36.508 23.91 36.508 23.946 36.508C24.978 36.508 25.824 36.406 26.484 36.202C27.144 35.998 27.63 35.686 27.942 35.266C28.254 34.846 28.41 34.306 28.41 33.646C28.41 32.974 28.248 32.434 27.924 32.026C27.6 31.618 27.114 31.318 26.466 31.126C25.818 30.922 24.99 30.82 23.982 30.82C23.946 30.82 23.886 30.82 23.802 30.82C23.73 30.82 23.664 30.82 23.604 30.82C22.524 30.82 21.642 30.916 20.958 31.108C20.274 31.3 19.77 31.606 19.446 32.026C19.122 32.434 18.96 32.98 18.96 33.664C18.96 34.336 19.134 34.882 19.482 35.302C19.842 35.722 20.364 36.028 21.048 36.22C21.744 36.412 22.596 36.508 23.604 36.508ZM22.056 40.594V26.806H25.314V40.594H22.056ZM33.7172 40V27.4H45.5432V40H42.0152V29.434L42.8072 30.226H36.4532L37.2272 29.434V40H33.7172ZM62.5647 40L59.5227 34.006L62.5107 32.314L66.6687 40H62.5647ZM57.5787 35.176V32.296H61.6467V35.176H57.5787ZM62.7087 34.078L59.4147 33.718L62.7267 27.4H66.4527L62.7087 34.078ZM51.1707 40H47.0487L51.2247 32.314L54.2307 34.006L51.1707 40ZM58.6227 40H55.1307V27.4H58.6227V40ZM56.1747 35.176H52.0887V32.296H56.1747V35.176ZM51.0267 34.078L47.2647 27.4H51.0087L54.2667 33.718L51.0267 34.078Z" fill="white"/>
</svg>
