<svg width="100" height="100" viewBox="0 0 100 100" fill="none" xmlns="http://www.w3.org/2000/svg">
<path d="M50.0083 8.3291C73.0208 8.3291 91.6792 26.9874 91.6792 50.0041C91.6792 51.0999 91.6375 52.1874 91.5542 53.2666C89.721 51.5267 87.6538 50.0513 85.4125 48.8833C85.3376 46.4494 85.0123 44.0297 84.4417 41.6624H70.45C70.5833 43.0624 70.6875 44.4791 70.7542 45.9166C68.6435 46.0825 66.5597 46.4965 64.5458 47.1499C64.4838 45.3183 64.3574 43.4894 64.1667 41.6666H35.8542C35.1213 48.6054 35.3104 55.6108 36.4167 62.4999H47.9083C47.0833 64.4791 46.4917 66.5708 46.15 68.7499H37.7625C40.2542 77.9791 44.4333 84.3124 48.8208 85.2916C49.9978 87.5774 51.4933 89.6845 53.2625 91.5499C52.1875 91.6333 51.1042 91.6749 50.0083 91.6749C26.9917 91.6749 8.33333 73.0166 8.33333 50.0041C8.33333 26.9874 26.9917 8.3291 50.0083 8.3291ZM31.2917 68.7541H19.9458C23.9705 75.1904 29.9497 80.1695 37.0083 82.9624C34.8292 79.5458 33.0333 75.2708 31.7167 70.3999L31.2917 68.7541ZM29.5625 41.6666H15.5708L15.5542 41.7374C14.9077 44.4454 14.5819 47.22 14.5833 50.0041C14.5833 54.4041 15.3875 58.6166 16.8542 62.5041H30.075C29.0687 55.6054 28.8967 48.6106 29.5625 41.6708M37.0125 17.0458L36.9167 17.0791C28.3884 20.4823 21.508 27.0537 17.7167 35.4166H30.4167C31.7208 28.1166 34 21.7624 37.0125 17.0458ZM50.0083 14.5791L49.525 14.5999C44.25 15.0833 39.1583 23.4249 36.7917 35.4166H63.2208C60.8625 23.4583 55.7917 15.1291 50.5333 14.6041L50.0083 14.5791ZM63.0083 17.0374L63.45 17.7666C66.2417 22.3999 68.3583 28.4833 69.5958 35.4208H82.2958C78.6796 27.4385 72.2428 21.073 64.2208 17.5458L63.0083 17.0374ZM95.8333 72.9166C95.8333 78.9945 93.4189 84.8234 89.1212 89.1211C84.8235 93.4188 78.9945 95.8333 72.9167 95.8333C66.8388 95.8333 61.0098 93.4188 56.7121 89.1211C52.4144 84.8234 50 78.9945 50 72.9166C50 66.8387 52.4144 61.0098 56.7121 56.7121C61.0098 52.4144 66.8388 49.9999 72.9167 49.9999C78.9945 49.9999 84.8235 52.4144 89.1212 56.7121C93.4189 61.0098 95.8333 66.8387 95.8333 72.9166ZM72.9167 58.3333C72.3641 58.3333 71.8342 58.5528 71.4435 58.9435C71.0528 59.3342 70.8333 59.8641 70.8333 60.4166V77.0833C70.8333 77.6358 71.0528 78.1657 71.4435 78.5564C71.8342 78.9471 72.3641 79.1666 72.9167 79.1666C73.4692 79.1666 73.9991 78.9471 74.3898 78.5564C74.7805 78.1657 75 77.6358 75 77.0833V60.4166C75 59.8641 74.7805 59.3342 74.3898 58.9435C73.9991 58.5528 73.4692 58.3333 72.9167 58.3333ZM72.9167 88.0208C73.6073 88.0208 74.2697 87.7464 74.7581 87.258C75.2465 86.7696 75.5208 86.1073 75.5208 85.4166C75.5208 84.7259 75.2465 84.0635 74.7581 83.5752C74.2697 83.0868 73.6073 82.8124 72.9167 82.8124C72.226 82.8124 71.5636 83.0868 71.0752 83.5752C70.5869 84.0635 70.3125 84.7259 70.3125 85.4166C70.3125 86.1073 70.5869 86.7696 71.0752 87.258C71.5636 87.7464 72.226 88.0208 72.9167 88.0208Z" fill="white"/>
</svg>
