<svg width="36" height="36" viewBox="0 0 36 36" fill="none" xmlns="http://www.w3.org/2000/svg">
<path d="M0 10C0 4.47715 4.47715 0 10 0H36V36H0V10Z" fill="#2A9D8F"/>
<path d="M15.4378 12.0672C16.578 10.0224 17.1477 9 18 9C18.8523 9 19.422 10.0224 20.5622 12.0672L20.8574 12.5964C21.1814 13.1778 21.3434 13.4685 21.5954 13.6602C21.8474 13.8519 22.1624 13.923 22.7924 14.0652L23.3648 14.1948C25.5787 14.6961 26.6848 14.9463 26.9485 15.7932C27.2113 16.6392 26.4571 17.5221 24.9478 19.287L24.5572 19.7433C24.1289 20.2446 23.9138 20.4957 23.8175 20.8053C23.7212 21.1158 23.7536 21.4506 23.8184 22.1193L23.8778 22.7286C24.1055 25.0839 24.2198 26.2612 23.5304 26.7841C22.841 27.3079 21.8042 26.83 19.7325 25.8759L19.1952 25.6293C18.6066 25.3575 18.3123 25.2225 18 25.2225C17.6877 25.2225 17.3934 25.3575 16.8048 25.6293L16.2684 25.8759C14.1958 26.83 13.159 27.307 12.4705 26.785C11.7802 26.2612 11.8945 25.0839 12.1222 22.7286L12.1816 22.1202C12.2464 21.4506 12.2788 21.1158 12.1816 20.8062C12.0862 20.4957 11.8711 20.2446 11.4428 19.7442L11.0522 19.287C9.5429 17.523 8.78872 16.6401 9.05151 15.7932C9.3152 14.9463 10.4222 14.6952 12.6361 14.1948L13.2085 14.0652C13.8376 13.923 14.1517 13.8519 14.4046 13.6602C14.6566 13.4685 14.8186 13.1778 15.1426 12.5964L15.4378 12.0672Z" fill="white"/>
</svg>
