<svg width="22" height="22" viewBox="0 0 22 22" fill="none" xmlns="http://www.w3.org/2000/svg">
<path d="M21.8554 20.0639C20.4589 17.5233 18.2782 15.5436 15.6645 14.4437C16.9643 13.4332 17.9244 12.0244 18.4088 10.4169C18.8933 8.80932 18.8775 7.08452 18.3637 5.48679C17.8499 3.88905 16.8642 2.49939 15.5462 1.51465C14.2281 0.529903 12.6446 0 11.0199 0C9.39513 0 7.81159 0.529903 6.49355 1.51465C5.17551 2.49939 4.18978 3.88905 3.676 5.48679C3.16222 7.08452 3.14643 8.80932 3.63087 10.4169C4.11531 12.0244 5.07541 13.4332 6.37519 14.4437C3.76147 15.5436 1.58085 17.5233 0.18435 20.0639C0.0978177 20.2081 0.0401444 20.3689 0.0147587 20.5367C-0.0106271 20.7045 -0.00320716 20.8759 0.0365774 21.0406C0.076362 21.2054 0.147699 21.3602 0.246347 21.4958C0.344996 21.6314 0.468942 21.7451 0.610817 21.8301C0.752692 21.915 0.9096 21.9696 1.07221 21.9904C1.23482 22.0113 1.39982 21.998 1.5574 21.9514C1.71497 21.9049 1.8619 21.8259 1.98946 21.7193C2.11701 21.6127 2.22259 21.4806 2.29991 21.3309C4.14555 18.024 7.40496 16.0517 11.0199 16.0517C14.6347 16.0517 17.8941 18.0251 19.7398 21.3309C19.9074 21.6102 20.1731 21.811 20.4809 21.8909C20.7887 21.9707 21.1144 21.9234 21.3892 21.7588C21.6639 21.5943 21.8662 21.3255 21.9532 21.0092C22.0402 20.6929 22.0051 20.3539 21.8554 20.0639ZM5.72331 8.02746C5.72331 6.94158 6.03395 5.88008 6.61594 4.97721C7.19793 4.07433 8.02514 3.37063 8.99295 2.95508C9.96077 2.53953 11.0257 2.4308 12.0532 2.64265C13.0806 2.85449 14.0243 3.37739 14.7651 4.14523C15.5058 4.91306 16.0103 5.89134 16.2146 6.95635C16.419 8.02137 16.3141 9.12528 15.9132 10.1285C15.5123 11.1317 14.8335 11.9892 13.9625 12.5925C13.0914 13.1958 12.0674 13.5178 11.0199 13.5178C9.61562 13.5161 8.26936 12.9371 7.27642 11.9078C6.28347 10.8786 5.72493 9.48306 5.72331 8.02746Z" fill="#FCFCFC"/>
</svg>
